<?xml version="1.0" encoding="utf-8"?>
<!-- Generator: Adobe Illustrator 25.3.0, SVG Export Plug-In . SVG Version: 6.00 Build 0)  -->
<svg version="1.1" id="Camada_2" xmlns="http://www.w3.org/2000/svg" xmlns:xlink="http://www.w3.org/1999/xlink" x="0px" y="0px"
	 viewBox="0 0 1366 768" style="enable-background:new 0 0 1366 768;" xml:space="preserve">
<style type="text/css">
	.st0{fill:#ED6000;}
	.st1{fill:#FFD176;}
	.st2{fill:#FCFCFC;}
</style>
<g>
	<path d="M522.47,531.75c-1.87,0.22-3.71,0.38-5.39,0.38c-2.67,0-4.95-0.39-6.34-1.55c-0.82-0.69-1.29-1.6-1.35-2.65l-0.29-5.4
		l0.88-0.05c-0.84,0-1.68,0-2.48-0.02c-3.58-0.06-7.22-0.11-10.89-0.55c-0.63-0.07-1.26-0.17-1.89-0.27
		c-8.21,16.43-9.13,34.17-2.37,47.69l0.08,0.2c0.28,0.85,1.38,1.69,2.8,2.13c2.09,0.66,4.29,0.33,5.88-0.85
		c1.65-1.23,2.98-2.92,4.28-4.54c1.7-2.14,3.46-4.35,5.95-5.6l0.31-0.11c3.76-0.94,7.81-0.34,12.35,1.8
		c-0.25-9.89-0.85-19.77-1.45-29.41L522.47,531.75z"/>
	<path d="M652.54,509.38c-0.17-0.09-0.33-0.18-0.5-0.26c-0.33-0.18-0.85-0.46-1.26-0.62l-2.58,27.74c1.68,0.75,3.64,1.04,4.81,0.35
		l-0.06-2.21L652.54,509.38z"/>
	<path d="M619.32,560.24c3.07-10.85,5.61-21.98,7.57-33.1c-1.77,1.34-3.91,2-6.37,1.91c-0.33-0.01-0.66-0.01-0.98-0.02
		c-2.12-0.02-4.76-0.04-5.91-3.03c-0.42-1.1-1.09-1.75-1.93-2.57c-0.6-0.58-1.28-1.25-1.92-2.14c-0.15-0.2-0.31-0.44-0.48-0.69
		c-0.45-0.65-1.63-2.39-2.19-2.5c-5.01,1.54-5.49,6.54-5.61,13.44c-0.03,1.68-0.06,3.28-0.22,4.73l-0.12,1.03
		c-0.7,6.23-1.43,12.68-1.06,19.02c0.06,0.99,0.09,2,0.12,3.02c0.11,3.48,0.22,7.09,1.44,10.13c0.54,1.35,1.36,2.71,2.05,2.52
		c2-0.58,4.5-6.88,3.93-9.9c-0.12-0.62,0.12-1.24,0.63-1.65C609.56,559.41,615.21,559.75,619.32,560.24z"/>
	<path d="M384.56,510.37c-0.78-0.66-2.55-1.24-3.83-1.66c-0.43-0.14-0.83-0.27-1.18-0.4c-5.11-1.85-8.26-1.55-9.9,0.92
		c-0.4,0.61-0.31,1.72-0.22,2.79c0.04,0.53,0.09,1.08,0.08,1.62c-0.03,2.58-0.18,5.34-0.44,8.44c-0.04,0.53-0.18,1.22-0.33,2.03
		c-0.21,1.08-0.69,3.6-0.43,4.22c1.12,1.88,7.59,2.12,10.4,1.45c3.92-0.94,4.43-1.52,6.18-5.12c0.45-0.94,1-1.76,1.49-2.49
		c1.11-1.66,1.72-2.67,1.41-4.08C387.45,516.57,386.42,511.94,384.56,510.37z"/>
	<path d="M440.87,513.03c-1.1-0.81-2.79-0.81-5.05,0c-0.31,0.26-0.67,0.34-0.94,0.37c-0.03,0.01-0.05,0.02-0.08,0.03l-0.7,0.3
		l-4.81,23.94c-0.04,0.21,0,0.29,0.1,0.4c0.56,0.6,2.34,0.95,3.82,0.75c1.28-0.17,2.51-0.19,3.7-0.2c1.87-0.02,3.64-0.04,5.28-0.68
		c0.47-0.51,0.32-3.6,0.26-4.76c-0.05-0.92-0.08-1.71-0.03-2.29c0.05-0.5,0.11-1.05,0.17-1.62
		C443.11,524.41,444.05,515.37,440.87,513.03z"/>
	<path d="M501.5,61C312.89,61,160,208.3,160,390s152.89,329,341.5,329S843,571.7,843,390S690.11,61,501.5,61z M675.1,598.21
		c-1.47,1.38-3.4,1.9-5.58,1.5c-2.12-0.39-2.71-0.27-4.67,0.15l-0.95,0.2c-2.75,0.56-5.9-0.08-8.2-1.68l-0.37-0.25l-0.17-0.42
		c-1.6-3.96-1.63-7.51-1.65-11.26c0-0.72-0.01-1.46-0.03-2.22c-0.04-1.92-0.22-3.9-0.4-5.81c-0.24-2.54-0.48-5.16-0.42-7.82
		c0.01-0.51,0.08-1.23,0.17-2.14c0.66-6.71,0.17-8.5-0.35-8.83c-0.61-0.38-0.97-0.78-1.22-1.05l-0.42,0.13l-0.45-0.15
		c-1.72-0.58-2.02-0.62-2.8-0.03l-0.44,0.33l-0.54-0.03c-0.2-0.01-0.47,0.02-0.83,0.35c-3.04,2.77-3.54,15.72-3.72,20.6
		c-0.04,1.04-0.07,1.86-0.11,2.39c-0.06,0.76-0.1,1.52-0.15,2.29c-0.32,5.29-0.66,10.76-3.8,15.38l-0.42,0.61l-9.87,0.52
		c-0.38,0.02-0.79,0.04-1.22,0.04c-0.81,0-1.68-0.08-2.54-0.38c-1.06-0.38-1.91-1.1-2.42-1.97c-4.74,4.37-11.44,6.97-18.58,6.97
		c-0.49,0-0.97-0.01-1.46-0.04c-10.26-0.51-21.4-8.81-25.37-18.72c-0.52,2.36-1.1,5.03-2.69,7.26c-2.5,3.52-6.75,4.98-10.17,5.86
		c-4.82,1.24-9.7,1.87-14.48,1.87c-3.76,0-7.46-0.39-11.01-1.16c-1.9-0.41-3.89-0.97-5.62-2.21c-2.82-2.03-4.66-5.11-5.86-8.4
		c0,1.6,0.05,3.18,0.2,4.74l0.04,0.4l-0.16,0.36c-2.94,6.61-9.31,6.68-14.93,6.73c-3.08,0.03-6.26,0.06-8.92,1.06l-0.3,0.1
		c-0.05,0.08-0.1,0.17-0.15,0.24c-0.14,0.23-0.32,0.51-0.55,0.82l0.07,0.06c-1.08,1.2-1.08,2.64-1.01,4.88l0.02,0.72
		c0.01,0.4,0.05,0.85,0.08,1.33c0.16,2.01,0.35,4.51-0.81,6.24c-0.75,1.12-1.92,1.57-2.86,1.94c-1.28,0.49-1.27,0.58-1.26,0.96
		c0.04,0.88,0.48,1.96,0.93,2.3c0.11,0.08,0.18,0.1,0.31,0.07c0.59-0.14,1.18-0.88,1.8-1.66c0.71-0.9,1.53-1.93,2.72-2.46
		c1.3-0.58,2.73-0.37,3.92,0.56c1.46,1.15,2.25,3.14,1.94,4.83c-0.43,2.29-1.83,5.61-3.9,7.49c-1.54,1.41-4.58,3.66-8.21,3.66
		c-0.25,0-0.5-0.01-0.76-0.03c-4.34-0.38-8.2-4.35-9.78-8.08c-1.95-4.62-1.07-9.94,2.24-13.54c0.44-0.47,0.91-0.85,1.32-1.18
		c0.92-0.74,1.1-0.96,1.08-1.33c-0.05-0.98-0.04-2.01-0.04-3.02c0-0.97,0-1.96-0.04-2.9c-3.71,0.99-9.26,1.17-12.96-0.76
		c-0.73-0.38-2.11-1.2-2.9-2.28c-0.06,0.12-0.12,0.25-0.19,0.37c-1.32,2.2-3.85,2.91-6.11,3.41l-10.95,2.39
		c-0.47,0.1-1.02,0.15-1.62,0.15c-2.91,0-7.06-1.04-8.81-1.75c-2.88-1.17-4.44-2.95-4.41-5.04l0.41-24.79
		c0.06-3.82-0.34-6.08-2.68-7.09c-1.65-0.71-6.03-2.61-8.17-1.19c-2.02,1.34-2.04,4.09-2.06,7c-0.01,1.31-0.02,2.66-0.24,3.88
		c-0.91,5.03-2.27,10-3.58,14.81l-0.23,0.85c-0.19,0.71-0.38,1.65-0.57,2.64c-0.59,2.98-1.26,6.36-2.91,8.27
		c-2.01,2.32-4.65,1.87-6.76,1.5c-0.52-0.09-1.03-0.18-1.54-0.23c-5.41-0.5-9.66-1.17-13.77-2.16c-0.54-0.13-1.1-0.22-1.69-0.31
		c-1.83-0.29-3.91-0.62-5.6-2.4c-0.96-1.01-1.22-1.49-1.76-2.57l-0.14-0.28c-0.67-1.32-1.78-3.54-1.32-5.46
		c3.39-14.14,6.96-28.41,10.62-42.48c-2.06,1.38-4.05,2.43-5.59,3.15c-3.32,1.56-6.33,1.85-9.52,2.15c-0.51,0.05-1.03,0.1-1.56,0.15
		c-5.21,0.55-6.42,1.91-6.69,2.48c-0.63,1.28-0.66,3.94-0.69,6.09c-0.01,1.14-0.03,2.22-0.12,3.11c-0.26,2.54-0.55,5.5-0.7,8.4
		c-0.11,2.19,0.05,4.36,0.22,6.66c0.2,2.67,0.41,5.44,0.15,8.26c-0.15,1.7-0.2,3.41-0.24,5.07c-0.05,1.81-0.1,3.68-0.29,5.59
		c-0.92,9.22-9.05,9.39-15.58,9.53c-0.92,0.02-1.82,0.04-2.7,0.08c-0.16,0.01-0.39,0.02-0.67,0.04c-1.48,0.1-3,0.17-4.45,0.17
		c-3.23,0-6.13-0.37-7.57-1.67c-0.63-0.57-0.98-1.3-1-2.11c-0.26-8.51-0.41-17.17-0.56-25.54c-0.12-6.91-0.25-14.06-0.43-21.08
		c-0.1-3.65,0.09-7.36,0.26-10.95c0.16-3.18,0.32-6.46,0.29-9.68c-0.05-4.83,0.07-9.72,0.19-14.45c0.25-9.63,0.5-19.59-0.74-29.33
		l-0.05-0.4l0.16-0.38c0.59-1.38,0.94-1.84,1.5-2.53c0.22-0.28,0.5-0.61,0.87-1.15c0.45-0.64,0.95-1.27,1.5-1.86
		c4.41-4.77,10.75-6.67,17.3-7.73c-3.61-8.47-3.94-18.66-0.86-27.74c-0.68-0.23-1.36-0.45-2.03-0.7
		c-18.48-6.87-32.39-19.46-39.17-35.45c-5.82-13.72-8.99-26.43-9.72-38.84c-1.44-24.71,5.45-51.03,21.05-80.28
		c-0.71,0.42-1.46,0.82-2.28,1.18c-3.17,1.36-6.32,2.03-9.26,2.03c-3.81,0-7.26-1.12-9.96-3.35c-4.02-3.31-6.62-8.39-6.95-13.58
		c-0.33-5.19,1.6-10.56,5.16-14.36c1.68-1.79,4.41-2.58,6.95-2c1.14,0.26,2.36,0.44,3.62,0.54c-3.59-6.18,2.98-14.8,6.91-19.96
		c0.34-0.45,0.66-0.87,0.94-1.24c3.09-4.15,9.26-9.11,15.06-10.58c1.62-0.41,11.59,0.48,14.8,2.51c2.25-0.76,4.52-0.95,7-0.58
		c0.68,0.1,1.44,0.48,2.4,0.96c0.7,0.35,2.11,1.05,2.69,1.09c1.32-1.29,3.76-2.07,5.91-1.87c1.53,0.14,2.73,0.79,3.37,1.82
		l0.49,0.79l-0.48,0.79c-2.98,4.88-2.19,7.66-0.99,11.86c0.34,1.19,0.72,2.54,1.04,4.03c0.92,4.39-0.71,8.94-3.42,12.58
		c0.12,0.93,0.03,1.9-0.12,2.84c-2.01,12.83-6.29,25.17-10.42,37.1c-3.8,10.96-7.73,22.29-9.85,33.9
		c-2.46,13.45-0.88,24.62,4.55,32.3c4.46,6.3,11.51,10.26,20.95,11.76c2.44,0.39,5.44,0.28,8.25-0.23l-0.08-0.03
		c2.07-5.13,7.36-8.86,12.89-9.09c-0.14-0.83-0.37-1.65-0.69-2.44l-0.25,0.06c-0.08-0.36-0.16-0.73-0.23-1.09
		c-0.04-0.08-0.08-0.17-0.12-0.25l0.07-0.04c-0.67-3.52-0.87-7.08,0.76-10.16l-0.56,0.29c-0.7-1.35-0.97-2.91-0.76-4.42l0.54,0.08
		c-0.02-1.12,0.07-2.29,0.52-3.58l3.39-9.63c0.57-1.62,1.22-3.46,2.32-5.06c2.23-3.21,6.14-5.05,10.02-4.79
		c0.01-0.07,0.03-0.14,0.04-0.21l-0.46-0.24l1.55-2.98c-2.24-3.99-4.15-9.16-5.15-14.6c-0.72-1.47-1.08-2.78-1.21-3.99l-9.54-15.15
		c-0.57-0.91-1.18-1.83-1.79-2.76c-2.91-4.43-5.92-9.02-6.87-14.29c-1.85-10.26,3.5-19.37,8.21-27.42l0.05-0.09
		c4.77-8.14,8.23-17,11.58-25.57c2.63-6.74,5.88-14.04,9.91-22.34c7.12-14.63,20.76-23.88,35.47-25.43
		c-0.49-4.01-0.89-8.1-1.29-12.07c-0.73-7.35-1.48-14.96-2.77-22.26c-0.49-2.76-0.53-5.42-0.57-8c-0.04-2.3-0.08-4.48-0.4-6.73
		c-1.1-7.68-1.85-15.78-2.25-24.08c-0.05-1.07-0.2-2.19-0.35-3.39c-0.35-2.68-0.71-5.45-0.06-8.08c2.33-9.44,15.13-7.97,22.01-7.18
		l0.35,0.04l-0.34,2.98c0.7,0.08,1.18-0.4,1.27-0.66c-0.23,0.66-0.34,3.46,0.51,13.06c0.08,0.88,0.13,1.49,0.14,1.69
		c0.11,3.04,0.6,6.21,1.07,9.28c0.6,3.88,1.21,7.88,1.12,11.81c-0.13,5.54,0.55,11.19,1.22,16.65l0.03,0.27
		c0.05,0.44,0.07,0.94,0.09,1.47c0.02,0.61,0.06,1.85,0.27,2.23c0.58,0.02,1.53-0.34,2.36-0.66c0.76-0.29,1.54-0.59,2.3-0.73
		c1.26-0.23,2.52-0.53,3.84-0.86c2.87-0.7,5.84-1.42,8.93-1.29c0.51,0.02,0.98,0.09,1.41,0.18c-0.77-7.68-0.8-15.54-0.08-23.92
		c0.54-6.34,1.36-12.65,2.4-18.88c0.2-1.97,0.4-3.94,0.65-5.91c0.94-7.49,4.26-12.05,9.6-13.18c6.93-1.47,12.94-1.68,18.38-0.64
		c7.93,1.52,10.21,7.84,11.4,13.82c0.7,3.52,1.35,7.27,2.1,12.16c0.43,2.77,0.83,5.55,1.23,8.32c0.73,5.05,1.49,10.27,2.39,15.37
		c0.52,2.96,1.12,5.95,1.69,8.84c1.57,7.85,3.19,15.96,3.44,24.24c0.09,2.83,0.27,8.72-4.78,11.16c-3.81,1.84-11.54,3.03-16.12,0.47
		c-2.13-1.19-3.39-3.09-3.64-5.49c-0.38-3.7-0.48-7.44-0.58-11.07c-0.1-3.68-0.21-7.48-0.6-11.18c-0.37,0.01-0.68-0.03-0.92-0.07
		l-0.17-0.03c-0.81-0.11-1.67,0-2.06,0.14c-0.35,8.62-1.61,17.23-3.75,25.59c-0.14,0.57-0.35,1.33-0.77,2.04
		c5.06,0.56,10.15,1.57,15.18,3.02c19.06,5.49,37.29,18.97,52.73,38.98c7.54-4.02,26.16-8.23,28.32-8.37
		c14.59-0.97,28.15,3.23,38.15,11.84c9.94,8.56,15.49,21.15,16.49,37.41c0.78,12.69-1.52,25.27-3.75,37.43l-0.46,2.52
		c-0.96,5.26-1.17,10.77-1.38,16.09c-0.25,6.37-0.51,12.96-2.03,19.33c-2.58,10.85-11.25,18.04-17.56,22.52
		c-0.64,0.45-1.28,0.92-1.93,1.39c-4.15,3-8.44,6.11-13.38,7.48c-3.58,1-6.55,0.04-9.43-0.88c-2.3-0.74-4.49-1.44-6.93-1.12
		c-1.58,0.21-3.42,1.09-5.36,2.03c-2.5,1.2-5.07,2.44-7.58,2.44c-0.36,0-0.71-0.02-1.07-0.08c-3.69-0.56-6.63-4.15-8.98-10.97
		c-0.47-1.36-0.93-1.78-1.64-2.41c-0.69-0.62-1.55-1.4-2.38-3.02c-0.65-1.25-0.65-1.25-1.58-1.47c-0.39-0.09-0.87-0.2-1.48-0.37
		l0.21-0.72c-2.46,3.51-5.01,6.94-7.69,10.28l-0.43-0.35c-1.45,1.65-2.96,3.26-4.52,4.81c1.15-0.11,2.31-0.15,3.45-0.1
		c3.8,0.17,7.5,1.09,10.94,2.64c3.46,1.55,6.55,3.75,9.28,6.25c2.72,2.51,5.13,5.29,7.37,8.15c2.24,2.86,4.32,5.82,6.37,8.76
		c2.04,2.91,4.18,5.84,6.17,8.85c4.01,5.99,7.77,12.1,11.74,18.02c1,1.48,2,2.94,3.04,4.39c1.02,1.42,2.12,2.98,3.07,4.53
		c1.95,3.12,3.56,6.45,4.86,9.9c2.61,6.89,3.76,14.38,3.1,21.78c-0.37,3.73-1.35,7.4-2.85,10.82c-1.54,3.4-3.54,6.58-5.89,9.44
		c-1.8,2.17-3.77,4.19-5.88,6.05c4.46,2.56,7.04,6.1,8.44,10.01c0.03-0.09,0.05-0.17,0.09-0.26c0.95-2.77,2.54-5.34,4.58-7.43
		l0.53,0.52c6.6-3.32,18.17-4.44,25.12-0.96c4.7,2.35,7.84,7,9.33,13.81c1.36,6.24,1.84,12.65,2.31,18.86
		c0.13,1.67,0.25,3.34,0.39,5.01c0.23,2.65,0.45,5.3,0.67,7.95c0.94,11.3,1.92,22.98,3.26,34.42l0.1,0.82
		C678.93,580.85,679.89,593.7,675.1,598.21z M679.05,508.28c-0.04,0.19-0.09,0.38-0.16,0.56c-0.09,0.26-0.23,0.48-0.39,0.65v0.76
		h-0.81c-0.1,0.34-0.18,0.67-0.18,1l-1,0.03c-0.02-0.42-0.07-0.88-0.12-1.35c-0.09,0-0.18,0-0.27-0.01l-0.54-0.02l0.06-0.53
		c0.04-0.33,0.05-0.67,0.04-1l-0.02-0.4l0.35-0.1c-0.08-0.06-0.17-0.14-0.23-0.26c-0.12-0.2-0.13-0.45-0.04-0.71
		c0.11-0.29,0.34-0.54,0.64-0.67s0.63-0.15,0.92-0.04l-0.23,0.6l0.19,0.02c-0.02,0.16-0.01,0.35-0.01,0.52c0.01,0,0.01,0,0.02,0.01
		l0.22,0.04V507h1v0.71l0.64,0.2C679.1,508.04,679.08,508.16,679.05,508.28z"/>
	<path d="M524,133.6c-0.12-1.4-0.26-2.57-0.41-3.79c-0.19-1.56-0.38-3.17-0.53-5.29c-0.04-0.52-0.46-1.34-0.84-2.06
		c-0.23-0.44-0.47-0.89-0.66-1.35c-0.55-0.14-1.06-0.09-1.36,0.05c-0.18,0.09-0.23,0.19-0.26,0.32c-0.97,4.44-1.32,7.72-1.24,12.03
		C520.45,133.83,522.25,133.86,524,133.6z"/>
	<path class="st0" d="M424.22,453.28c34.53-11.98,59.86-29.67,75.29-52.56c-3.45,1.32-7.11,1.82-10.57,2.13
		c-5.38,0.49-10.84,0.63-16.24,0.42c-0.21,0.6-0.72,0.84-0.86,0.89c-0.1,0.04-0.31,0.11-0.57,0.11c-0.39,0-0.9-0.15-1.34-0.78
		c-0.66-0.94-0.68-2.07-0.69-2.67c-0.12-7.53,2.1-15.14,6.21-21.48c-0.14-0.27-0.22-0.62-0.11-1.06c-1.06-2.3-1.3-5.11-0.61-7.68
		c0.74-2.75,2.58-5.16,5.03-6.6c2.1-1.23,3.23-3.05,4.55-5.15c1.06-1.7,2.16-3.46,3.87-5.03l0.17-0.16c1.29-1.18,2.51-2.3,3.07-3.69
		l2.78,1.13c-0.82,2.01-2.41,3.48-3.82,4.77l-0.17,0.16c-1.41,1.3-2.36,2.81-3.36,4.41c-1.4,2.24-2.85,4.55-5.58,6.15
		c-1.78,1.05-3.12,2.79-3.65,4.79c-0.37,1.36-0.37,2.84-0.06,4.18c0.43-0.28,0.91-0.5,1.41-0.53c5.74-3.79,13.36-4.59,19.7-1.82
		c7.68,3.35,13.79,10.84,10.64,18.66c-0.15,0.38-0.33,0.75-0.52,1.11l1.13,0.71c0.31-0.49,0.08-1.06-0.1-1.18
		c1.15,0.17,2.5-0.39,3.52-1.44c1.1-1.13,1.81-2.7,2.36-4.08c2.63-6.62,3.52-13.88,4.38-20.91l2.98,0.36
		c-0.5,4.1-1.02,8.27-1.88,12.39c3.74-1.41,8.1-3.94,9.18-6.32c0.35-0.77,0.07-1.47-0.5-2.75c-0.3-0.67-0.64-1.42-0.83-2.25
		c-0.64-2.83-0.31-5.81,0.93-8.38l2.7,1.3c-0.93,1.93-1.19,4.27-0.71,6.41c0.12,0.54,0.37,1.1,0.64,1.69
		c0.28,0.63,0.59,1.34,0.77,2.1l0.19-0.1c0.18,0.34,0.33,0.7,0.48,1.04c0.34,0.8,0.48,1.06,0.71,1.12c1.78,0.5,3.72,0.44,5.46-0.17
		c1.72-0.6,3-1.72,3.43-3l2.84,0.96c-0.73,2.18-2.66,3.96-5.29,4.88c-1.28,0.45-2.64,0.67-3.99,0.67c-1.11,0-2.21-0.15-3.28-0.45
		c-0.61-0.17-1.07-0.47-1.43-0.82c-2.39,3.52-8.33,6.34-12.13,7.5c-0.52,1.97-1.13,3.91-1.89,5.82c-0.66,1.66-1.53,3.56-3,5.07
		c-1.49,1.53-3.41,2.38-5.27,2.38c-0.26,0-0.53-0.02-0.79-0.05c-0.56-0.08-1.2-0.36-1.68-0.84c-0.9,1.25-2.03,2.39-3.35,3.39
		c-0.5,0.8-0.72,1.27-0.93,1.73c-0.28,0.62-0.57,1.26-1.41,2.52c-15.8,23.49-41.66,41.59-76.86,53.81c-8.65,3-17.63,4.73-26.63,5.23
		c-0.81,1.98-1.73,3.95-2.62,5.85c-2.49,5.34-5.06,10.85-5.38,16.74c8.03,2.89,14.08,9.5,17.9,17.32c0.08-0.43,0.16-0.87,0.22-1.32
		c0.27-2.09,0.84-4.7,2.79-6.4c9.73-8.45,25.24-10.28,46.1-5.49c-0.01-4.58,2.06-9.14,5.49-12.17c0-0.11,0.01-0.26,0.02-0.4
		c0.01-0.19,0.06-0.31,0.09-0.47c0.15-0.58,0.36-1.02,0.57-1.45c0.87-1.66,1.92-2.93,2.74-4.27l1.39-2.11l1.48-2.05
		c8.1-10.81,19.34-18.99,31.65-24.2c3.08-1.32,6.23-2.46,9.45-3.39c3.21-0.94,6.47-1.73,9.77-2.29c6.59-1.17,13.27-1.6,19.92-1.58
		c6.65,0.05,13.28,0.45,19.88,1.17c2.06,0.22,4.11,0.5,6.16,0.85c0.09-0.42,0.13-0.89,0.42-1.08c0.38-0.54,0.83-1.01,1.36-1.37
		c1.06-0.7,2.16-1.34,3.27-1.94c2.24-1.17,4.58-2.13,6.98-2.82c2.4-0.72,4.86-1.18,7.33-1.47c2.47-0.25,4.99-0.23,7.42,0.35l0,0.06
		c-2.43,0.54-4.77,1-7.09,1.55c-2.32,0.53-4.59,1.26-6.8,2.08c-2.2,0.86-4.35,1.81-6.39,2.95l-1.51,0.88l-1.46,0.95
		c-0.21,0.15-0.43,0.27-0.66,0.39c0.26,0.05,0.53,0.1,0.79,0.16c3.25,0.69,6.47,1.49,9.63,2.5l-19.67-2.07
		c-6.54-0.65-13.11-1.02-19.67-1.01c-6.55,0.03-13.1,0.5-19.52,1.69c-3.21,0.57-6.38,1.36-9.5,2.3c-3.12,0.93-6.18,2.06-9.16,3.36
		c-11.94,5.15-22.73,13.16-30.43,23.59l-1.4,1.98l-1.32,2.04c-0.9,1.47-1.95,2.79-2.59,4.07c-0.15,0.31-0.28,0.62-0.34,0.85
		c0,0.04-0.03,0.12-0.02,0.13c0,0.03,0,0.04,0,0.09c0.23-0.01,0.49-0.02,0.75-0.02c0.54,0.01,1.1,0.13,1.55,0.25
		c0.49,0.15,1,0.32,1.5,0.64c0.5,0.31,0.98,0.74,1.32,1.26c0.34,0.52,0.55,1.08,0.67,1.61c0.23,1.05,0.21,1.98,0.17,2.85
		c-0.06,0.91-0.18,1.94-0.56,2.87c-0.73,1.92-2.17,3.31-3.36,4.42c-0.6,0.57-1.16,1.1-1.63,1.66c-0.24,0.28-0.45,0.56-0.65,0.85
		l-0.4,0.6c-0.31,0.38-0.65,0.57-0.87,0.66c0,0,0,0,0,0.01c-0.03,0.14,0,0.28,0.02,0.32c-0.01,0,0.07,0.1,0.28,0.24
		c1.16-1.12,2.36-2.15,3.64-3.11c1.56-1.16,3.21-2.23,5.02-3.08c1.81-0.83,3.84-1.53,6.15-1.37c1.14,0.09,2.34,0.45,3.33,1.13
		c1,0.66,1.77,1.59,2.32,2.48c0.32,0.42,0.53,0.97,0.78,1.46c0.12,0.25,0.19,0.54,0.28,0.82c0.08,0.28,0.18,0.55,0.2,0.85
		c0.23,1.17,0.06,2.38-0.26,3.47c-0.73,2.17-2.09,3.77-3.41,5.19c-0.67,0.71-1.36,1.38-2.04,2.03c-0.7,0.66-1.3,1.26-2.07,1.96
		l-1.03,0.9c-0.28,0.26-0.53,0.54-0.8,0.87c-0.06,0.08-0.43,0.55-0.74,0.76c-0.31,0.23-0.58,0.37-0.81,0.49
		c-0.1,0.05-0.18,0.09-0.25,0.13c0.29,0,0.58-0.02,0.91-0.08l0.35-0.08c0.11-0.03,0.14-0.03,0.24-0.07
		c0.16-0.06,0.36-0.15,0.58-0.27c0.44-0.23,0.93-0.53,1.53-0.83c0.3-0.15,0.64-0.29,1.04-0.4c0.19-0.06,0.45-0.1,0.63-0.13
		l0.39-0.05c0.52-0.07,0.99-0.17,1.57-0.29c0.58-0.12,1.2-0.22,1.79-0.29l0.42-0.05l0.39,0.18c0.67,0.31,1.33,0.67,1.91,1
		c0.59,0.34,1.12,0.63,1.67,0.88l0.52,0.24l0.24,0.54c0.32,0.73,0.57,1.64,0.58,2.52c0.01,0.44-0.02,0.86-0.06,1.24
		c-0.06,0.4-0.08,0.69-0.23,1.24c-0.28,0.92-0.66,1.54-0.96,2.14c-0.06,0.11-0.11,0.22-0.17,0.33c2.75,1.05,5.64,1.73,8.62,2.08
		c3.45,0.42,7,0.47,10.58,0.53c7.05,0.32,13.92-1.11,20.89-2.77l5.25-1.23l2.65-0.58c0.86-0.18,1.71-0.38,2.57-0.59
		c3.41-0.85,6.79-1.93,10.13-3.12c1.67-0.6,3.34-1.22,5.01-1.86c1.66-0.66,3.5-1.27,5.28-1.71c3.6-0.9,7.24-1.34,10.81-1.74
		c3.58-0.39,7.08-0.77,10.57-1.4c3.48-0.61,6.95-1.38,10.37-2.3c3.42-0.91,6.8-1.98,10.11-3.21c0.83-0.3,1.65-0.63,2.47-0.95
		c0.8-0.33,1.57-0.67,2.34-1.06c1.54-0.76,3.05-1.64,4.52-2.59c2.93-1.89,5.83-4.03,8.59-6.19c2.74-2.17,5.23-4.62,7.45-7.29
		c2.21-2.67,4.05-5.62,5.47-8.75c1.38-3.14,2.27-6.48,2.61-9.89c0.61-6.89-0.46-13.93-2.93-20.45c-1.23-3.26-2.75-6.42-4.6-9.38
		c-0.93-1.5-1.89-2.87-2.96-4.37c-1.05-1.47-2.07-2.96-3.08-4.45c-4.02-5.99-7.78-12.1-11.75-18.02c-1.97-2.97-4.06-5.83-6.13-8.79
		c-2.06-2.94-4.1-5.85-6.28-8.63c-2.18-2.78-4.48-5.44-7.03-7.79c-2.55-2.34-5.39-4.33-8.48-5.72c-3.09-1.4-6.48-2.24-9.84-2.39
		c-1.68-0.07-3.36,0.03-4.98,0.37c-1.62,0.34-3.12,0.93-4.7,1.69c-3.1,1.5-6,3.46-8.81,5.6c-2.84,2.11-5.37,4.42-7.52,7.12
		c-2.18,2.67-3.77,5.68-5.03,8.94c-0.64,1.62-1.2,3.29-1.73,4.98l-0.78,2.55l-0.39,1.29l-0.02,0.08l0.12-0.03
		c0.15,0.4,0,1.14-0.33,1.46c-0.31,0.34-0.59,0.44-0.84,0.51c-0.25,0.06-0.48,0.07-0.75,0.02c-0.26-0.05-0.58-0.18-0.86-0.46
		c-0.27-0.3-0.3-0.41-0.39-0.64c-0.07-0.2-0.09-0.38-0.09-0.52c0-0.29,0.04-0.46,0.07-0.59l0.21-0.69l0.39-1.29l0.79-2.59
		c0.54-1.73,1.13-3.46,1.8-5.18c0.68-1.72,1.42-3.4,2.34-5.06c0.91-1.65,1.97-3.2,3.14-4.66c0.34-0.43,0.71-0.83,1.08-1.25
		c-3.8,1.75-8.39,3.71-12.4,5.34l-1.13-2.78c6.6-2.68,14.77-6.26,18.17-8.21l0.43,0.75c0.63-0.51,1.26-1.02,1.9-1.49
		c2.89-2.21,5.96-4.28,9.32-5.92c0.6-0.29,1.23-0.57,1.88-0.83l-0.04-0.05c4.11-3.66,7.92-7.7,11.32-12.02l0.29,0.23
		c6.84-9.02,12.92-18.65,18.09-28.7l2.67,1.37c-3.73,7.25-7.93,14.29-12.54,21.04c0.21,0.05,0.39,0.09,0.56,0.13
		c1.83,0.42,2.45,0.81,3.58,3.02c0.59,1.14,1.12,1.62,1.73,2.17c0.82,0.74,1.74,1.57,2.46,3.66c2.4,6.96,4.91,8.73,6.6,8.98
		c1.92,0.29,4.45-0.92,6.89-2.1c2.07-1,4.22-2.03,6.28-2.3c3.11-0.41,5.71,0.43,8.23,1.23c2.68,0.86,5,1.6,7.71,0.85
		c4.42-1.23,8.49-4.17,12.42-7.02c0.66-0.48,1.31-0.95,1.96-1.41c9.39-6.66,14.59-13.26,16.37-20.76c1.45-6.09,1.7-12.53,1.95-18.76
		c0.21-5.43,0.43-11.04,1.43-16.51l0.46-2.52c2.2-11.99,4.47-24.38,3.71-36.71c-0.95-15.43-6.15-27.31-15.45-35.32
		c-9.4-8.09-22.18-12.04-35.99-11.12c-3.26,0.22-20.49,4.69-26.74,7.75c0.01,0.01,0.01,0.02,0.02,0.03l0.98,1.54l-1.7,0.66
		c-0.13,0.05-0.29,0.14-0.47,0.23c-0.92,0.46-1.97,0.99-2.95,0.51c-0.5-0.24-0.85-0.71-0.96-1.27c-0.09-0.48-0.08-1.22,0.55-2.04
		c0.08-0.11,0.18-0.22,0.29-0.33c-15.02-19.43-32.68-32.5-51.08-37.8c-11.9-3.43-24.14-4.32-35.4-2.57
		c-6.66,1.03-13.2,2.74-19.44,5.04l-0.47,1.29c-0.52-0.19-1.04-0.36-1.56-0.53c-8.71,3.42-16.77,7.99-23.67,13.51
		c-2.66,2.13-5.23,4.81-7.72,7.4c-0.32,0.33-0.63,0.66-0.95,0.99l0.66,0.82c-12.25,9.81-20.28,26.21-27.44,42.16
		c-1.78,3.97-2.36,12.26-2.71,17.21l-0.03,0.43c-0.27,3.85,0.67,7.48,1.67,11.32c0.74,2.86,1.51,5.82,1.74,8.91
		c0.12,1.55,0.13,3.1,0.09,4.66c1.01-1.68,2.34-3.29,4.07-4.52c1.85-1.31,9.38-4.94,12.56-1.75c6.09,6.09,8.81,17.56,6.6,27.88
		c-0.62,2.9-1.59,5.5-2.85,7.77c-0.53,1.19-1.11,2.29-1.74,3.28c-2.09,3.26-4.53,5.02-6.97,5.08c-0.39,0.18-0.79,0.35-1.2,0.51
		c-1.39,0.53-3.8,0.94-5.46,1.12l-1.34,2.58c-0.17,0.79-0.34,1.61-0.52,2.48c-3.5,16.77-9.36,44.83-25.91,50.67
		c-2.9,1.03-6.41,1.58-9.66,1.58c-1.31,0-2.58-0.09-3.75-0.28c-10.27-1.63-17.98-6-22.93-12.99c-5.92-8.35-7.66-20.31-5.06-34.57
		c2.16-11.84,6.13-23.28,9.96-34.34c3.97-11.44,8.05-23.27,10.09-35.43c-0.8,0.69-1.62,1.31-2.46,1.83
		c-3.54,2.19-7.01,2.33-10.37,2.47c-2.42,0.1-4.74,0.19-7.01,1.07l0.92,0.4l-2.18,1.53c-2.04,1.44-5.35,3.8-8.64,6.3l0.18,0.27
		c-1.75,1.2-2.94,3.15-4.21,5.38c-17.65,31.18-25.5,58.88-24,84.69c0.7,12.06,3.81,24.44,9.49,37.84
		c6.45,15.23,19.75,27.23,37.45,33.81C381.07,460.25,403.58,460.44,424.22,453.28z M627.68,234.78c10.52,1.29,19.98,8.43,24.1,18.19
		l-2.76,1.17c-3.71-8.79-12.23-15.22-21.7-16.38L627.68,234.78z M585.69,254.14c3.72-7.07,10.35-11.31,15.25-13.63
		c6.15-2.91,12.8-4.45,19.23-5.93l0.68,2.92c-6.28,1.45-12.77,2.95-18.62,5.72c-4.49,2.12-10.54,5.98-13.88,12.32
		c-2.79,5.29-3.48,12.12-1.94,19.22c1.47,6.8,4.78,13.26,7.81,18.67l-2.62,1.47c-3.15-5.61-6.57-12.32-8.13-19.51
		C581.79,267.6,582.57,260.05,585.69,254.14z M488.63,297.93l3,0.16c-0.04,0.77-0.03,1.56,0.02,2.33l21.69-13.83l1.61,2.53
		l-22.44,14.31c-0.6,0.39-1.16,0.54-1.64,0.54c-0.66,0-1.18-0.29-1.52-0.67c-0.44-0.49-0.51-1.04-0.55-1.31
		C488.61,300.65,488.56,299.28,488.63,297.93z M479.03,331.62l2.85,0.93c-0.38,1.15,0.52,2.53,1.57,3.16
		c1.43,0.85,3.33,0.91,4.84,0.87c8.4-0.24,16.06-3.62,24.17-7.21c5.75-2.54,11.69-5.16,17.92-6.56l0.66,2.93
		c-5.94,1.33-11.75,3.9-17.36,6.38c-8.02,3.54-16.31,7.21-25.29,7.46c-0.24,0.01-0.49,0.01-0.75,0.01c-1.78,0-3.88-0.21-5.71-1.3
		C479.5,336.85,478.26,333.98,479.03,331.62z M470,333.79l1.93-8.58l2.93,0.66l-1.93,8.58c-0.25,1.12-0.51,2.28-0.4,3.32
		c0.1,0.91,0.54,1.69,1.12,1.98l-1.36,2.67c-1.5-0.77-2.52-2.38-2.74-4.33C469.38,336.56,469.71,335.09,470,333.79z M434.69,272.54
		l-0.04-0.04c-1.96-2.15-4.98-3.15-7.75-2.63c-0.32,0.06-0.6,0.11-0.87,0.15c-2.21,0.38-2.68,0.46-9.63,5.68l-1.8-2.4
		c7.3-5.48,8.07-5.74,10.92-6.24c0.25-0.04,0.52-0.09,0.82-0.15c3.77-0.71,7.87,0.66,10.46,3.49l0.07,0.08L434.69,272.54z"/>
	<path class="st0" d="M476.69,517c1.07,0.42,2.36,0.56,4.16,0.47c0.93-0.05,2-0.15,2.88-0.55c0.77-0.35,1.33-0.92,1.5-1.53
		l0.42,0.12c0.07-0.13,0.14-0.26,0.2-0.39c0.32-0.61,0.62-1.18,0.73-1.57c0.04-0.1,0.1-0.5,0.13-0.77c0.03-0.29,0.05-0.55,0.04-0.8
		c-0.01-0.32-0.08-0.63-0.18-0.95c-0.46-0.23-0.91-0.47-1.32-0.71c-0.45-0.26-0.87-0.49-1.3-0.7c-0.37,0.05-0.74,0.11-1.11,0.19
		c-0.53,0.11-1.16,0.24-1.75,0.32l-0.45,0.06c-0.1,0.02-0.11,0.02-0.2,0.04c-0.14,0.04-0.33,0.11-0.53,0.21
		c-0.41,0.2-0.88,0.49-1.44,0.78c-0.28,0.15-0.59,0.3-0.96,0.43c-0.17,0.07-0.41,0.13-0.57,0.17l-0.47,0.1
		c-0.45,0.09-0.94,0.12-1.44,0.13l0.11,0.24c-0.73,0.33-1.13,1.43-0.87,2.35C474.57,515.64,475.49,516.54,476.69,517z"/>
	<path class="st0" d="M393.18,461.51c-9.65,0-19.27-1.45-28.5-4.32c-2.95,8.67-2.53,18.4,1.11,26.35c0.13-0.02,0.26-0.03,0.39-0.05
		l1.26-0.16c6.24-0.78,13.3-1.67,19.42-0.44c0.27,0.05,0.52,0.12,0.79,0.18c0.49-6.18,3.07-11.75,5.59-17.14
		c0.68-1.46,1.37-2.96,2.02-4.46C394.56,461.48,393.87,461.51,393.18,461.51z"/>
	<path class="st0" d="M463.03,490.92l0.2-0.3c0.27-0.39,0.56-0.77,0.86-1.11c0.6-0.7,1.25-1.3,1.85-1.86
		c1.22-1.12,2.21-2.13,2.66-3.33c0.26-0.6,0.33-1.24,0.39-1.97c0.04-0.77,0.04-1.51-0.09-2.08c-0.14-0.57-0.32-0.85-0.72-1.1
		c-0.19-0.13-0.48-0.23-0.76-0.33c-0.34-0.08-0.59-0.15-0.88-0.15c-0.32-0.02-0.59,0.03-1.24,0.03c-0.09-0.01-0.17-0.01-0.28-0.02
		c-0.12-0.02-0.24-0.04-0.36-0.07c-0.03-0.01-0.05-0.02-0.08-0.03c-2.57,2.53-4.08,6.15-3.99,9.75c0.03,1.07,0.22,1.81,0.59,2.24
		c0.14,0.16,0.37,0.29,0.59,0.33c0.13,0.02,0.25,0.01,0.3-0.02l0.32,0.38c0.24-0.19,0.46-0.29,0.58-0.35
		C463.01,490.93,463.01,490.93,463.03,490.92z"/>
	<path class="st0" d="M535.79,403.94c-0.19,0.05-0.42,0.13-0.69,0.43c-0.29,0.28-0.43,0.96-0.29,1.3l2.61-0.72
		c-0.01-0.05-0.01-0.08-0.03-0.14c-0.07-0.18-0.07-0.23-0.3-0.5C536.57,403.84,536.15,403.87,535.79,403.94z"/>
	<path class="st1" d="M626.21,572.2l-0.41-6.29l0.07,0c-0.17-0.39-0.4-0.82-0.67-1.32c-0.11-0.2-0.24-0.39-0.39-0.55
		c-0.14,0.06-0.28,0.1-0.42,0.11l-1.72,0.79l-0.01-1.16c-0.04-0.02-0.08-0.04-0.12-0.05c-1.25-0.43-9.08-1.14-11.84-0.93
		c0.08,4.21-2.52,11.03-6.16,12.09c-1.32,0.38-3.82,0.34-5.67-4.29c-1.42-3.54-1.54-7.41-1.65-11.16c-0.03-1-0.06-1.98-0.12-2.94
		c-0.38-6.6,0.36-13.17,1.08-19.53l0.12-1.03c0.15-1.31,0.17-2.84,0.2-4.45c0.11-6.22,0.24-13.97,7.81-16.27
		c2.45-0.74,4.26,1.92,5.47,3.69c0.16,0.23,0.3,0.44,0.43,0.62c0.49,0.68,1.02,1.2,1.58,1.75c0.97,0.95,1.98,1.93,2.64,3.64
		c0.38,0.99,0.93,1.09,3.13,1.11c0.34,0,0.69,0.01,1.04,0.02c0.1,0,0.2,0,0.3,0c4.5,0,7.3-3.39,8.31-10.08
		c1.98-13-0.71-20.93-8.47-24.95l0.31-0.6c-0.03,0.03-0.06,0.05-0.1,0.08c-2.88,2.26-5.76,4.38-8.85,6.38
		c-1.54,0.99-3.14,1.92-4.81,2.75c-0.83,0.42-1.7,0.8-2.56,1.15c-0.85,0.33-1.69,0.67-2.55,0.98c-3.41,1.27-6.88,2.36-10.38,3.29
		c-3.5,0.94-7.05,1.73-10.63,2.35c-3.57,0.64-7.21,1.04-10.75,1.42c-3.55,0.39-7.05,0.83-10.41,1.67c-1.7,0.42-3.27,0.94-4.94,1.6
		c-1.68,0.64-3.37,1.28-5.07,1.89c-3.41,1.21-6.87,2.32-10.42,3.21c-0.89,0.22-1.78,0.42-2.67,0.61l-2.6,0.57l-4.82,1.12
		c0.01,0.93-0.04,1.57-0.1,2.28c-0.04,0.53-0.09,1.13-0.12,1.96c-0.01,0.35,0.01,0.64,0.03,0.88c0.08,0.98,0.05,1.89-0.98,2.78
		c0,0.02-0.01,0.04-0.01,0.07c-0.21,1.52-0.47,3.37-2.9,3.88l0.08,1.38c0.86,14,1.76,28.48,1.55,42.86
		c-0.11,7.45,1.63,16.74,6.82,20.47c1.28,0.92,2.92,1.37,4.5,1.71c7.62,1.66,15.95,1.42,24.11-0.68c2.93-0.75,6.54-1.97,8.47-4.7
		c1.24-1.74,1.73-4,2.21-6.18l1.7-7.76c3.73-17.03,2.71-34.94,1.72-52.25c-0.27-4.72-0.55-9.61-0.72-14.38
		c-0.03-0.78,0.01-1.29,0.03-1.71c0.03-0.51,0.06-0.89-0.05-1.7l2.97-0.39c0.14,1.11,0.1,1.71,0.07,2.29
		c-0.03,0.38-0.05,0.77-0.03,1.39c0.17,4.74,0.45,9.61,0.72,14.31c1,17.52,2.03,35.63-1.78,53.06l-1.44,6.57l2.18-0.76
		c3.24,9.28,13.59,17.21,23.08,17.69c7.96,0.39,17.86-3.07,22.06-11.71C626.45,585.25,626.56,578.73,626.21,572.2z M537.05,543.59
		l-1.34-2.68l2.25-1.12l1.34,2.68L537.05,543.59z M543.12,584.25h-2.25v-3h2.25V584.25z M544.25,529.12h-0.7v-3h0.7V529.12z
		 M547.5,560.13c-0.17,0.03-0.34,0.05-0.51,0.05c-0.89,0-1.68-0.46-2.08-1.22c-0.47-0.91-0.25-2.03,0.55-2.79
		c0.8-0.76,1.93-0.91,2.82-0.39l-0.91,1.55c-0.15-0.12-0.32-0.16-0.44-0.14c-0.2,0.04-0.42,0.29-0.45,0.62l0.58,0.05l-0.3,0.51
		c0.29,0.17,0.62,0.12,0.76-0.01c0.09-0.09,0.15-0.25,0.14-0.44l1.79,0.16C549.37,559.08,548.58,559.92,547.5,560.13z
		 M562.96,538.58c-0.64-0.73-0.65-1.98-0.03-2.73c0.56-0.67,1.48-0.81,2.25-0.35l-0.45,0.75c-0.36-0.14-0.79-0.12-1.12,0.08
		l0.54,0.86l-0.52,0.87c0.33,0.2,0.75,0.21,1.11,0.06l0.47,0.74c-0.31,0.19-0.64,0.29-0.97,0.29
		C563.76,539.17,563.3,538.96,562.96,538.58z M565.62,580.88h-0.7v-3h0.7V580.88z M566.75,524.62h-1.12v-3h1.12V524.62z
		 M570.12,561.75h-2.25v-3h2.25V561.75z"/>
	<path class="st1" d="M469.79,570.22c-0.16-3.42-0.33-6.95-0.2-10.47c0.07-1.94,0.23-3.89,0.39-5.78c0.17-2.06,0.35-4.19,0.4-6.26
		c0.09-3.46-0.16-6.99-0.4-10.42l-2.03-29.06c-0.53-0.24-1.05-0.51-1.54-0.84c-2.46-1.67-4.08-4.44-4.35-7.4
		c-0.12-1.36,0.04-2.69,0.28-3.96c-0.23-0.23-0.49-0.59-0.65-0.94c-0.18-0.4-0.26-0.81-0.28-1.21c-0.06-0.01-0.13-0.01-0.19-0.02
		c-0.89-0.17-1.74-0.66-2.32-1.34c-0.35-0.41-0.59-0.85-0.78-1.3c-14.35-3.44-33.35-5.27-44.66,4.56c-1.19,1.03-1.57,2.87-1.79,4.53
		c-0.08,0.6-0.19,1.19-0.3,1.77c-0.29,1.54-0.53,2.87-0.12,4.16l-0.62,0.2c1.57,4.54,2.45,9.28,2.58,13.79
		c0.22,7.61-1.26,14.82-4.39,21.45c-1.18,2.49-2.89,4.64-4.8,6.47c-0.58,1.83-1.2,3.65-1.9,5.44l-0.09-0.04
		c-3.56,13.74-7.05,27.68-10.36,41.49c-0.21,0.86,0.7,2.65,1.08,3.41l0.14,0.28c0.46,0.92,0.56,1.12,1.25,1.84
		c0.99,1.04,2.27,1.24,3.89,1.5c0.62,0.1,1.27,0.2,1.93,0.36c3.96,0.96,8.08,1.6,13.34,2.09c0.6,0.06,1.2,0.16,1.77,0.26
		c2.14,0.37,3.17,0.44,3.98-0.51c1.13-1.31,1.75-4.4,2.24-6.89c0.21-1.04,0.4-2.03,0.62-2.84l0.23-0.85
		c1.3-4.75,2.64-9.66,3.52-14.55c0.17-0.96,0.18-2.13,0.19-3.37c0.02-3.23,0.05-7.25,3.4-9.47c3.1-2.06,7.52-0.58,11.02,0.94
		c4.62,2,4.53,6.94,4.48,9.89l-0.41,24.79c-0.01,0.86,1.3,1.7,2.54,2.2c2.3,0.93,7,1.82,8.66,1.46l10.95-2.39
		c1.73-0.38,3.47-0.84,4.18-2.02c0.49-0.82,0.48-1.96,0.41-3.36L469.79,570.22z M445.58,529.58c-0.06,0.57-0.12,1.1-0.16,1.6
		c-0.04,0.36,0,1.09,0.04,1.85c0.15,2.99,0.34,6.72-2.16,7.7c-2.15,0.84-4.28,0.87-6.34,0.89c-1.15,0.01-2.24,0.03-3.34,0.17
		c-0.42,0.06-0.86,0.09-1.32,0.09c-1.87,0-3.92-0.51-5.09-1.75c-0.78-0.83-1.08-1.91-0.86-3.04l4.66-23.19l-0.23-0.98
		c-0.14-0.58,0.05-1.16,0.46-1.56c0.79-0.95,2.1-1,2.93-1.03c0.13,0,0.27-0.01,0.39-0.02c3.37-1.25,6.08-1.15,8.08,0.32
		C447.22,513.98,446.23,523.36,445.58,529.58z"/>
	<path class="st1" d="M401.6,545.93l0.34,0.1c1.67-1.61,3.17-3.47,4.18-5.62c2.93-6.19,4.31-12.95,4.11-20.08
		c-0.42-14.5-8.96-31.52-23.95-34.51c-5.65-1.12-12.46-0.27-18.46,0.48l-1.27,0.16c-7.16,0.89-14.42,2.38-18.95,7.28
		c-0.46,0.49-0.88,1.01-1.25,1.54c-0.43,0.62-0.74,1-1,1.32c-0.37,0.45-0.56,0.69-0.91,1.45c1.21,9.83,0.95,19.76,0.71,29.37
		c-0.12,4.7-0.24,9.57-0.19,14.34c0.03,3.31-0.13,6.64-0.29,9.86c-0.17,3.53-0.36,7.18-0.26,10.72c0.19,7.04,0.31,14.19,0.43,21.11
		c0.15,8.36,0.3,17,0.56,25.5c0.13,0.17,1.32,1.27,9.82,0.7c0.31-0.02,0.55-0.04,0.73-0.04c0.9-0.04,1.83-0.06,2.78-0.08
		c7.47-0.16,12.05-0.69,12.66-6.83c0.18-1.8,0.23-3.54,0.27-5.38c0.04-1.7,0.09-3.46,0.26-5.26c0.23-2.57,0.03-5.21-0.16-7.76
		c-0.17-2.29-0.35-4.67-0.23-7.04c0.15-2.97,0.45-5.97,0.71-8.56c0.08-0.76,0.09-1.77,0.1-2.84c0.03-2.57,0.07-5.49,0.99-7.37
		c1.11-2.26,4.08-3.61,9.07-4.14c0.54-0.06,1.07-0.11,1.59-0.16c3.05-0.29,5.68-0.54,8.53-1.88c2.36-1.11,5.87-3.04,8.9-5.79
		C401.47,546.33,401.54,546.13,401.6,545.93z M388.86,523.84c-0.45,0.68-0.92,1.38-1.29,2.13c-2.09,4.3-3.27,5.54-8.17,6.72
		c-0.84,0.2-2.55,0.42-4.51,0.42c-3.44,0-7.62-0.67-9.18-3.27c-0.79-1.33-0.47-3.45,0.08-6.3c0.13-0.69,0.26-1.34,0.29-1.71
		c0.26-3.02,0.4-5.71,0.43-8.22v0c0.01-0.4-0.03-0.85-0.07-1.33c-0.12-1.43-0.26-3.22,0.71-4.69c2.46-3.71,6.98-4.42,13.42-2.09
		c0.33,0.12,0.7,0.24,1.1,0.37c1.6,0.53,3.6,1.18,4.83,2.21c2.34,1.96,3.48,6.04,4.22,9.37
		C391.31,520.18,390.01,522.12,388.86,523.84z"/>
	<path class="st2" d="M472.24,400.25c5.46,0.24,10.98,0.11,16.43-0.39c3.54-0.32,7.28-0.82,10.61-2.28c3.46-1.51,6.1-4,7.25-6.84
		c2.44-6.05-2.71-12.02-9.05-14.79c-5.43-2.37-12.21-1.58-17.12,1.76c-0.39,0.47-0.76,0.95-1.12,1.44l0.34,0.59h-0.77
		C474.6,385.68,472.24,392.98,472.24,400.25z"/>
	<path class="st1" d="M525.58,525.71l0.56-0.37c0.11-0.07,0.18-0.13,0.23-0.17c0-0.09-0.02-0.19-0.02-0.29
		c-0.02-0.3-0.06-0.72-0.04-1.23c0.03-0.89,0.08-1.52,0.13-2.09c0.04-0.47,0.07-0.88,0.08-1.34c-2.65,0.6-5.33,1.16-8.05,1.57
		c-1.81,0.27-3.63,0.49-5.48,0.6c-0.29,0.02-0.6,0.02-0.89,0.03l0.29,5.34c0.01,0.18,0.06,0.33,0.27,0.51
		c1.57,1.31,6.81,0.83,9.63,0.49l-0.01-0.24l2.86-0.17c0.09-0.14,0.18-0.79,0.24-1.26c0.03-0.22,0.06-0.46,0.1-0.71L525.58,525.71z"
		/>
	<path class="st1" d="M512.53,563.42c-1.83,0.97-3.28,2.79-4.8,4.71c-1.41,1.78-2.87,3.61-4.83,5.08c-2.35,1.77-5.56,2.26-8.57,1.32
		c-2.33-0.73-4.08-2.19-4.71-3.93c-7.03-14.15-6.23-32.52,2.05-49.56c-1.96-0.47-3.89-1.09-5.76-1.91c-0.29,0.2-0.6,0.38-0.94,0.53
		c-1.34,0.61-2.76,0.75-3.97,0.82c-0.37,0.02-0.76,0.03-1.17,0.03c-1.3,0-2.79-0.14-4.23-0.7c-2-0.78-3.52-2.3-4.11-4.09l1.5,21.37
		c0.24,3.49,0.5,7.1,0.41,10.7c-0.06,2.17-0.24,4.34-0.41,6.44c-0.15,1.85-0.31,3.77-0.38,5.64c-0.12,3.39,0.04,6.86,0.2,10.22
		l1.31,27.62c0.01,0.31,0.03,0.66,0.03,1.01c0.18-0.1,0.38-0.2,0.62-0.29l0.97,2.75c0.12-0.2,0.17-0.49,0.08-0.66
		c0.16,0.32,1.11,1.06,1.92,1.48c2.91,1.52,7.73,1.39,10.98,0.48c0.45-0.13,0.93-0.27,1.51-0.21c1.07,0.11,1.92,0.93,2.01,1.94
		c0.12,1.33,0.11,2.75,0.11,4.12c0,1.01,0,1.97,0.04,2.87c0.09,1.98-1.24,3.04-2.21,3.82c-0.36,0.29-0.7,0.56-0.98,0.87
		c-2.52,2.75-3.18,6.81-1.68,10.35c1.21,2.87,4.26,5.99,7.28,6.26c2.92,0.26,5.65-1.91,6.68-2.86c1.29-1.18,2.57-3.68,2.97-5.83
		c0.11-0.58-0.29-1.48-0.85-1.92c-0.44-0.35-0.72-0.23-0.84-0.18c-0.52,0.23-1.04,0.88-1.58,1.58c-0.87,1.1-1.85,2.34-3.47,2.72
		c-1,0.24-1.98,0.03-2.8-0.6c-1.56-1.18-2.06-3.41-2.12-4.55c-0.12-2.63,1.94-3.43,3.17-3.91c0.63-0.24,1.23-0.47,1.45-0.81
		c0.58-0.87,0.42-2.87,0.31-4.34c-0.04-0.54-0.08-1.04-0.09-1.49l-0.02-0.69c-0.07-2.05-0.14-4.35,1.3-6.38l-0.09-0.08
		c0.31-0.34,0.51-0.66,0.7-0.98c0.38-0.62,0.94-1.53,2.18-1.66c3.09-1.1,6.46-1.14,9.72-1.17c6.08-0.06,9.96-0.32,12.06-4.61
		c-0.36-3.98-0.12-8.12,0.11-12.14c0.34-5.88,0.68-11.96-0.84-17.54C518.86,563.22,515.6,562.69,512.53,563.42z"/>
	<path class="st0" d="M471.87,511.11c-0.1-0.14-0.14-0.24-0.18-0.32c-0.04-0.09-0.07-0.19-0.09-0.29c-0.03-0.15-0.04-0.26-0.05-0.39
		c0.01-0.51,0.08-0.78,0.14-1.01c-0.22-0.01-0.45-0.03-0.67-0.05l0.29,4.1c0.12-0.67,0.35-1.32,0.71-1.88
		C471.97,511.21,471.91,511.17,471.87,511.11z"/>
	<path class="st1" d="M674.72,571.1c-1.35-11.49-2.32-23.2-3.27-34.52c-0.22-2.65-0.44-5.3-0.67-7.95c-0.14-1.68-0.27-3.36-0.4-5.04
		c-0.46-6.1-0.93-12.41-2.25-18.44c-1.28-5.88-3.89-9.83-7.74-11.76c-5.86-2.93-17.22-2.22-23.37,1.47l-0.07-0.12
		c-1.12,1.45-2.01,3.09-2.61,4.82c-0.39,1.14-0.39,1.19-0.34,1.87c0.02,0.32,0.05,0.74,0.06,1.34l-1.62,0.03
		c0.8,4.66,0.37,9.52-0.26,13.63c-0.28,1.85-0.72,3.5-1.27,4.96l-0.87,5.08c-1.97,11.48-4.58,22.98-7.73,34.19
		c0.55,0.09,0.97,0.18,1.21,0.24c0.12-0.1,0.26-0.18,0.41-0.25l0.64-0.29l0.63,0.3c1.11,0.53,2.04,1.42,2.62,2.5
		c0.88,1.64,1.87,3.47,1.17,5.67c0.52,7.63,0.92,16.13-2.61,23.39c-0.77,1.59-1.75,3.06-2.9,4.42l0.05,0.25l0.47-0.01
		c0.01,0.35,0.43,0.76,0.95,0.95c0.73,0.26,1.67,0.21,2.58,0.17l8.36-0.44c2.31-3.82,2.6-8.41,2.89-13.26
		c0.05-0.77,0.1-1.55,0.15-2.32c0.04-0.51,0.07-1.3,0.11-2.29c0.38-9.91,1.22-19.52,4.7-22.7c0.72-0.66,1.56-1.04,2.45-1.12
		c1.75-1.12,3.23-0.76,4.74-0.27c1.43-0.25,2.15,0.55,2.54,0.99c0.18,0.2,0.33,0.36,0.58,0.52c2.52,1.56,2.27,6.41,1.75,11.67
		c-0.08,0.81-0.15,1.52-0.16,1.92c-0.06,2.48,0.18,5.02,0.4,7.47c0.18,1.96,0.37,3.99,0.41,6.02c0.02,0.77,0.02,1.52,0.03,2.26
		c0.02,3.46,0.04,6.47,1.26,9.73c1.6,0.96,3.71,1.34,5.52,0.97l0.93-0.19c2.08-0.44,3.13-0.67,5.84-0.16c1.26,0.23,2.2,0,2.98-0.74
		c2.81-2.65,3.41-10.75,1.78-24.08L674.72,571.1z M655.62,538.32c-1.14,1.18-2.66,1.67-4.28,1.67c-1.84,0-3.81-0.63-5.46-1.57
		l-0.84-0.48l2.93-31.52l0.47-0.4c1.62-1.37,3.67-0.27,5.03,0.46c0.42,0.22,0.81,0.44,1.11,0.55l0.99,0.37l-0.01,1.05
		c-0.09,8.13,0.17,17.54,0.41,25.85l0.1,3.57L655.62,538.32z"/>
	<path class="st0" d="M474.48,505.81c0.32-0.39,0.68-0.81,1.09-1.18c0.41-0.38,0.76-0.65,1.08-0.94c0.61-0.55,1.33-1.27,1.99-1.89
		c0.67-0.64,1.32-1.27,1.93-1.92c1.22-1.28,2.28-2.65,2.74-4.04c0.44-1.38,0.22-2.74-0.67-4.06c-0.84-1.38-1.92-2.12-3.36-2.23
		c-1.44-0.12-3.09,0.37-4.63,1.1c-3.11,1.48-6.04,3.77-8.51,6.28l-0.04,0.04l-0.69,0.71l-0.26-0.1c-0.1,0.73-0.14,1.46-0.08,2.16
		c0.18,2.04,1.35,4.03,3.05,5.18c1.7,1.15,3.97,1.51,5.94,0.93l0.09,0.31c0.06-0.03,0.1-0.06,0.13-0.08
		C474.33,506,474.25,506.1,474.48,505.81z"/>
	<path class="st2" d="M419.73,334.54c0.9-0.06,2.33-0.26,3.58-0.51c-0.27-0.28-0.54-0.59-0.79-0.93c-2.7-3.72-3.63-10.64-2.42-18.05
		c1.41-8.65,4.76-15.52,8.52-17.51c1.42-0.75,2.88-0.82,4.22-0.19c0.03,0.02,0.06,0.04,0.1,0.05c-0.78-1.31-1.67-2.48-2.66-3.47
		c-1.19-1.19-6.44,0.47-8.7,2.07c-3.45,2.45-5.32,7.41-5.92,11.24l-0.16-0.03c-0.17,0.55-0.32,1.11-0.45,1.68
		c0.01,0.84-0.01,1.69-0.12,2.55c-0.13,1.03-0.33,1.95-0.53,2.83c-0.2,6.95,1.76,14.54,4.61,20.3L419.73,334.54z"/>
	<path class="st0" d="M411.05,285.27c-1.01-3.9-2.06-7.94-1.76-12.28l0.03-0.43c0.36-5.15,0.96-13.78,2.96-18.23
		c6.46-14.39,13.63-29.14,24.03-39.44l-0.52-0.55c1.61-1.51,3.23-3.2,4.8-4.84c2.56-2.66,5.2-5.41,8.01-7.66
		c6.12-4.89,13.13-9.06,20.67-12.38c-17.55-3.2-35.7,6.05-44.11,23.34c-4,8.23-7.21,15.46-9.82,22.12
		c-3.39,8.68-6.9,17.65-11.79,25.99l-0.05,0.09c-4.67,7.97-9.5,16.21-7.85,25.37c0.84,4.67,3.68,8.99,6.43,13.17
		c0.62,0.95,1.23,1.88,1.82,2.8l7.45,11.83c0.01-0.06,0.03-0.12,0.04-0.18c0.07-1.86,0.27-3.69,0.65-5.45
		c0-0.19-0.01-0.39-0.01-0.59c-0.02-0.67-0.03-1.33-0.02-2c0.04-1.71,0.14-3.28,0.58-4.82c0.24-2.49,0.29-5,0.1-7.51
		C412.5,290.83,411.8,288.13,411.05,285.27z"/>
	<path class="st0" d="M402.95,365.46c0.98-0.67,2.21-1,3.48-0.91c1.3,0.09,2.51,0.62,3.39,1.45c2.6-7.61,4.38-15.59,5.71-21.88
		c-2.68-0.02-5.4,1.32-6.92,3.52c-0.88,1.27-1.43,2.83-1.96,4.35l-3.39,9.63c-0.43,1.22-0.38,2.31-0.31,3.68
		C402.95,365.34,402.95,365.41,402.95,365.46z"/>
	<path class="st2" d="M403.63,379.71c2.19-3.57,4.03-7.71,5.59-12.03l-1.2,0.8c-0.35-0.53-1.03-0.88-1.8-0.94
		c-0.77-0.05-1.49,0.2-1.91,0.68c-2.16,2.43-2.24,5.49-1.47,9.52C403.15,378.38,403.42,379.03,403.63,379.71z"/>
	<path class="st0" d="M401.65,382.64l-0.41,0.05l0.02,0.45C401.39,382.98,401.53,382.82,401.65,382.64z"/>
	<path class="st1" d="M502.16,156.28c0.29,0.91,0.59,1.84,0.97,2.71c2.18,4.9,2.4,10.58,2.61,16.06c0.06,1.46,0.11,2.89,0.2,4.27
		c0.05,0.78-0.17,1.33-0.48,1.73c2.43-0.05,4.89,0.01,7.36,0.17l1.11-0.7c-0.07-0.12-0.18-0.17-0.22-0.17
		c0.05,0.01,0.15-0.02,0.19-0.06c0.3-0.27,0.47-0.87,0.64-1.51c2.11-8.25,3.34-16.74,3.67-25.25c0.03-0.7,0.35-1.35,0.9-1.81
		c1.49-1.25,4.22-0.93,4.53-0.89l0.25,0.04c0.06,0.01,0.11,0.02,0.17,0.03c0.44-0.25,0.97-0.28,1.48-0.08
		c0.82,0.32,1.62,1.37,1.72,2.23c0.46,3.99,0.57,8.04,0.68,11.95c0.1,3.57,0.2,7.26,0.57,10.85c0.15,1.42,0.84,2.46,2.12,3.17
		c3.46,1.93,10.22,0.96,13.36-0.55c2.73-1.32,3.21-4.3,3.08-8.36c-0.25-8.02-1.84-16.02-3.38-23.74c-0.58-2.91-1.18-5.92-1.71-8.91
		c-0.91-5.14-1.67-10.39-2.4-15.46c-0.4-2.77-0.8-5.53-1.23-8.3c-0.75-4.84-1.39-8.56-2.08-12.04c-1.21-6.07-3.2-10.34-9.02-11.46
		c-5.03-0.96-10.66-0.76-17.19,0.62c-3.17,0.67-5.36,3.03-6.52,7.02l0.37,0.08c-0.65,3.11-1.22,6.27-1.75,9.44
		c-0.4,4.09-0.73,8.19-1.04,12.19c-0.38,4.95-0.78,10.08-1.34,15.14l-0.47-0.05c-0.14,5.88,0.12,11.55,0.79,17.12
		C501.12,153.04,501.66,154.71,502.16,156.28z M517.01,120.84c0.23-1.05,0.89-1.89,1.87-2.37c1.29-0.63,3.01-0.59,4.5,0.12
		l0.61,0.29l0.19,0.65c0.12,0.42,0.4,0.97,0.71,1.54c0.51,0.98,1.09,2.09,1.17,3.23c0.14,2.04,0.33,3.54,0.52,5.13
		c0.19,1.55,0.38,3.16,0.53,5.27l0.09,1.28l-1.25,0.29c-1.42,0.32-2.87,0.48-4.32,0.48c-1.6,0-3.2-0.2-4.75-0.59l-1.09-0.28
		l-0.04-1.13C515.56,129.66,515.9,125.88,517.01,120.84z"/>
	<path class="st1" d="M460.95,185.86c4.35-0.15,8.77,0.4,13.11,1.66c6.75-2.57,13.86-4.47,21.11-5.6c1.63-0.25,3.28-0.45,4.94-0.59
		c0.43-0.69,1.06-0.97,1.43-1.12c0.08-0.03,0.16-0.06,0.24-0.1c0.39-0.39,0.82-0.63,1.13-0.8c0.01-0.01,0.02-0.01,0.03-0.02
		c-0.09-1.34-0.14-2.72-0.19-4.12c-0.2-5.2-0.41-10.58-2.35-14.96c-0.45-1.02-0.78-2.04-1.09-3.02c-0.49-1.55-0.89-2.68-1.47-3.44
		l-0.51,0.07c-0.03-0.21-0.05-0.42-0.08-0.64c-0.49-0.36-1.09-0.57-1.93-0.6c-2.67-0.11-5.3,0.53-8.1,1.21
		c-1.31,0.32-2.67,0.65-4.03,0.89c-0.48,0.09-1.1,0.32-1.76,0.58c-1.22,0.47-2.48,0.95-3.73,0.85c-2.82-0.23-2.92-3.41-2.98-5.12
		c-0.01-0.43-0.03-0.85-0.07-1.21l-0.03-0.27c-0.68-5.57-1.38-11.33-1.24-17.09c0.09-3.66-0.51-7.54-1.08-11.28
		c-0.48-3.15-0.99-6.42-1.1-9.63c-0.01-0.18-0.06-0.73-0.13-1.53c-0.64-7.3-0.77-10.94-0.61-12.87c-6.15-0.67-15.73-1.27-17.29,5.08
		c-0.52,2.09-0.19,4.57,0.12,6.97c0.16,1.2,0.32,2.45,0.38,3.64c0.39,8.2,1.13,16.21,2.22,23.8c0.35,2.45,0.39,4.82,0.43,7.11
		c0.04,2.57,0.08,5,0.53,7.53c1.31,7.41,2.07,15.07,2.8,22.48C460.05,177.71,460.46,181.84,460.95,185.86z"/>
	<path class="st0" d="M323.47,271.45c0.16-0.01,0.33-0.02,0.49-0.04l0.02,0.22c0.13,0.04,0.26,0.06,0.4,0.09
		c2.68,0.44,6.64-1.51,9.16-3.66c2.19-1.87,3.74-5.03,5.24-8.08c0.87-1.77,1.77-3.61,2.79-5.16c2.99-4.54,7.02-8.3,11.75-10.96
		c-3.27-0.85-9.18-1.61-10.42-1.3c-4.45,1.12-10.2,5.19-13.39,9.46c-0.29,0.38-0.61,0.81-0.96,1.27
		c-3.26,4.28-9.34,12.24-6.67,16.69C322.29,270.68,322.81,271.16,323.47,271.45z"/>
	<path class="st1" d="M335.25,292.46l0.14-0.4l0.33-0.27c3.34-2.72,7.39-5.7,10.47-7.91c-0.05-0.31-0.02-0.67,0.17-1.05
		c0.5-1.02,1.45-1.59,2.01-1.94c3.54-2.17,7-2.31,10.35-2.45c3.11-0.13,6.05-0.25,8.92-2.02c4.68-2.9,9.01-9.05,7.81-14.76
		c-0.29-1.38-0.64-2.63-0.99-3.83c-1.17-4.11-2.19-7.7,0.62-13.03c-0.12-0.03-0.26-0.05-0.41-0.06c-1.4-0.13-3.01,0.46-3.57,1.07
		c-1.55,1.68-4.07,0.42-6.09-0.59c-0.5-0.25-1.25-0.63-1.5-0.68c-2.18-0.31-4.09-0.13-6.04,0.62c-0.06,0.06-0.12,0.11-0.18,0.16
		l-0.06-0.07c-0.34,0.14-0.68,0.29-1.02,0.46c-4.93,2.44-9.13,6.16-12.15,10.76c-0.92,1.39-1.73,3.06-2.6,4.83
		c-1.63,3.33-3.32,6.77-5.99,9.05c-2.28,1.94-7.28,5.04-11.59,4.34c-0.3-0.05-0.58-0.11-0.86-0.2c-2.77,0.13-5.59-0.1-8.07-0.66
		c-0.32-0.07-0.65-0.11-0.98-0.11c-1.19,0-2.39,0.45-3.12,1.24c-3.01,3.2-4.63,7.73-4.35,12.11c0.28,4.38,2.47,8.67,5.86,11.46
		c3.9,3.21,9.93,3.54,16.13,0.87C332.02,297.88,334.11,295.74,335.25,292.46z"/>
	<path class="st0" d="M392.17,390.29c2.64-0.97,5-2.65,7.11-4.84C396.44,386.11,393.83,387.88,392.17,390.29z"/>
	<path d="M591.6,294.9l2.62-1.47c-3.04-5.42-6.34-11.87-7.81-18.67c-1.54-7.11-0.85-13.93,1.94-19.22
		c3.34-6.33,9.39-10.19,13.88-12.32c5.86-2.77,12.35-4.27,18.62-5.72l-0.68-2.92c-6.43,1.49-13.08,3.02-19.23,5.93
		c-4.9,2.32-11.52,6.56-15.25,13.63c-3.12,5.91-3.9,13.46-2.21,21.25C585.03,282.59,588.46,289.29,591.6,294.9z"/>
	<path d="M649.02,254.14l2.76-1.17c-4.12-9.76-13.58-16.9-24.1-18.19l-0.37,2.98C636.79,238.92,645.3,245.35,649.02,254.14z"/>
	<path d="M472.29,342.43l1.36-2.67c-0.58-0.3-1.02-1.07-1.12-1.98c-0.11-1.04,0.15-2.2,0.4-3.32l1.93-8.58l-2.93-0.66l-1.93,8.58
		c-0.29,1.3-0.62,2.77-0.45,4.3C469.76,340.04,470.79,341.66,472.29,342.43z"/>
	<path d="M489.36,303.3c0.34,0.38,0.87,0.67,1.52,0.67c0.48,0,1.03-0.15,1.64-0.54l22.44-14.31l-1.61-2.53l-21.69,13.83
		c-0.06-0.78-0.07-1.56-0.02-2.33l-3-0.16c-0.07,1.35-0.02,2.72,0.17,4.06C488.84,302.26,488.92,302.82,489.36,303.3z"/>
	<path d="M481.92,338.29c1.83,1.09,3.94,1.3,5.71,1.3c0.26,0,0.51,0,0.75-0.01c8.99-0.25,17.28-3.92,25.29-7.46
		c5.61-2.48,11.42-5.04,17.36-6.38l-0.66-2.93c-6.23,1.4-12.17,4.02-17.92,6.56c-8.11,3.58-15.77,6.97-24.17,7.21
		c-1.5,0.04-3.41-0.02-4.84-0.87c-1.05-0.62-1.95-2.01-1.57-3.16l-2.85-0.93C478.26,333.98,479.5,336.85,481.92,338.29z"/>
	<path d="M426.34,266.92c-0.3,0.06-0.57,0.1-0.82,0.15c-2.85,0.49-3.62,0.76-10.92,6.24l1.8,2.4c6.96-5.22,7.42-5.3,9.63-5.68
		c0.26-0.05,0.55-0.09,0.87-0.15c2.77-0.52,5.79,0.48,7.75,2.63l0.04,0.04l2.19-2.05l-0.07-0.08
		C434.22,267.58,430.11,266.21,426.34,266.92z"/>
	<path d="M442.64,510.61c-2-1.47-4.71-1.57-8.08-0.32c-0.13,0.01-0.26,0.01-0.39,0.02c-0.84,0.03-2.15,0.08-2.93,1.03
		c-0.41,0.4-0.59,0.99-0.46,1.56l0.23,0.98l-4.66,23.19c-0.23,1.13,0.08,2.21,0.86,3.04c1.17,1.25,3.22,1.75,5.09,1.75
		c0.46,0,0.9-0.03,1.32-0.09c1.09-0.15,2.18-0.16,3.34-0.17c2.06-0.02,4.19-0.05,6.34-0.89c2.49-0.98,2.31-4.71,2.16-7.7
		c-0.04-0.76-0.07-1.49-0.04-1.85c0.05-0.5,0.1-1.03,0.16-1.6C446.23,523.36,447.22,513.98,442.64,510.61z M442.6,529.27
		c-0.06,0.58-0.12,1.12-0.17,1.62c-0.06,0.58-0.02,1.37,0.03,2.29c0.06,1.16,0.21,4.24-0.26,4.76c-1.64,0.64-3.41,0.66-5.28,0.68
		c-1.19,0.01-2.43,0.03-3.7,0.2c-1.48,0.2-3.26-0.15-3.82-0.75c-0.1-0.11-0.14-0.2-0.1-0.4l4.81-23.94l0.7-0.3
		c0.03-0.01,0.05-0.02,0.08-0.03c0.27-0.03,0.62-0.11,0.94-0.37c2.25-0.81,3.95-0.8,5.05,0
		C444.05,515.37,443.11,524.41,442.6,529.27z"/>
	<path d="M386.49,508.08c-1.23-1.03-3.22-1.69-4.83-2.21c-0.4-0.13-0.77-0.25-1.1-0.37c-6.45-2.33-10.96-1.62-13.42,2.09
		c-0.97,1.47-0.83,3.26-0.71,4.69c0.04,0.48,0.08,0.94,0.07,1.33v0c-0.03,2.51-0.17,5.2-0.43,8.22c-0.03,0.37-0.16,1.02-0.29,1.71
		c-0.55,2.85-0.87,4.97-0.08,6.3c1.56,2.6,5.74,3.27,9.18,3.27c1.96,0,3.67-0.22,4.51-0.42c4.9-1.18,6.08-2.42,8.17-6.72
		c0.36-0.75,0.83-1.45,1.29-2.13c1.15-1.72,2.45-3.66,1.85-6.39C389.98,514.12,388.83,510.04,386.49,508.08z M386.37,522.17
		c-0.49,0.73-1.04,1.55-1.49,2.49c-1.75,3.6-2.26,4.17-6.18,5.12c-2.82,0.68-9.28,0.43-10.4-1.45c-0.26-0.62,0.23-3.14,0.43-4.22
		c0.15-0.8,0.29-1.5,0.33-2.03c0.26-3.1,0.41-5.86,0.44-8.44c0.01-0.54-0.04-1.09-0.08-1.62c-0.09-1.07-0.18-2.18,0.22-2.79
		c1.64-2.48,4.79-2.77,9.9-0.92c0.35,0.13,0.75,0.26,1.18,0.4c1.29,0.42,3.05,1,3.83,1.66c1.86,1.56,2.88,6.2,3.22,7.72
		C388.09,519.5,387.48,520.51,386.37,522.17z"/>
	<path d="M677.7,570.75c-1.34-11.44-2.31-23.12-3.26-34.42c-0.22-2.65-0.44-5.3-0.67-7.95c-0.14-1.67-0.27-3.34-0.39-5.01
		c-0.46-6.21-0.95-12.62-2.31-18.86c-1.49-6.81-4.62-11.45-9.33-13.81c-6.95-3.48-18.52-2.36-25.12,0.96l-0.53-0.52
		c-2.05,2.09-3.63,4.66-4.58,7.43c-0.03,0.1-0.06,0.17-0.09,0.26c-1.4-3.91-3.98-7.46-8.44-10.01c2.11-1.85,4.08-3.87,5.88-6.05
		c2.36-2.86,4.35-6.03,5.89-9.44c1.5-3.42,2.48-7.09,2.85-10.82c0.66-7.4-0.5-14.89-3.1-21.78c-1.3-3.45-2.91-6.78-4.86-9.9
		c-0.95-1.55-2.05-3.11-3.07-4.53c-1.03-1.44-2.04-2.91-3.04-4.39c-3.98-5.92-7.73-12.02-11.74-18.02
		c-1.99-3.01-4.13-5.94-6.17-8.85c-2.06-2.93-4.13-5.89-6.37-8.76c-2.24-2.86-4.65-5.64-7.37-8.15c-2.73-2.5-5.82-4.7-9.28-6.25
		c-3.43-1.55-7.13-2.47-10.94-2.64c-1.15-0.05-2.3-0.01-3.45,0.1c1.56-1.55,3.07-3.15,4.52-4.81l0.43,0.35
		c2.67-3.34,5.23-6.77,7.69-10.28l-0.21,0.72c0.61,0.18,1.08,0.29,1.48,0.37c0.93,0.21,0.93,0.21,1.58,1.47
		c0.84,1.63,1.7,2.4,2.38,3.02c0.7,0.64,1.17,1.06,1.64,2.41c2.35,6.82,5.29,10.41,8.98,10.97c0.35,0.05,0.71,0.08,1.07,0.08
		c2.51,0,5.08-1.24,7.58-2.44c1.95-0.94,3.78-1.82,5.36-2.03c2.44-0.32,4.62,0.38,6.93,1.12c2.88,0.92,5.85,1.88,9.43,0.88
		c4.94-1.38,9.23-4.48,13.38-7.48c0.65-0.47,1.29-0.94,1.93-1.39c6.3-4.47,14.98-11.67,17.56-22.52c1.52-6.37,1.77-12.96,2.03-19.33
		c0.21-5.32,0.43-10.83,1.38-16.09l0.46-2.52c2.23-12.16,4.53-24.74,3.75-37.43c-1-16.27-6.55-28.86-16.49-37.41
		c-10-8.61-23.55-12.81-38.15-11.84c-2.16,0.14-20.78,4.35-28.32,8.37c-15.44-20.01-33.67-33.49-52.73-38.98
		c-5.03-1.45-10.12-2.45-15.18-3.02c0.42-0.71,0.62-1.48,0.77-2.04c2.14-8.36,3.4-16.96,3.75-25.59c0.38-0.14,1.25-0.24,2.06-0.14
		l0.17,0.03c0.23,0.04,0.55,0.08,0.92,0.07c0.4,3.7,0.5,7.5,0.6,11.18c0.1,3.63,0.2,7.37,0.58,11.07c0.25,2.4,1.5,4.29,3.64,5.49
		c4.58,2.56,12.31,1.37,16.12-0.47c5.05-2.43,4.86-8.33,4.78-11.16c-0.25-8.27-1.87-16.39-3.44-24.24
		c-0.58-2.89-1.17-5.88-1.69-8.84c-0.9-5.1-1.66-10.32-2.39-15.37c-0.4-2.78-0.81-5.55-1.23-8.32c-0.75-4.89-1.4-8.64-2.1-12.16
		c-1.19-5.98-3.47-12.3-11.4-13.82c-5.43-1.04-11.44-0.83-18.38,0.64c-5.35,1.13-8.67,5.69-9.6,13.18
		c-0.25,1.96-0.45,3.94-0.65,5.91c-1.03,6.22-1.85,12.54-2.4,18.88c-0.72,8.37-0.69,16.24,0.08,23.92c-0.43-0.1-0.9-0.16-1.41-0.18
		c-3.09-0.13-6.06,0.59-8.93,1.29c-1.33,0.32-2.58,0.63-3.84,0.86c-0.76,0.14-1.54,0.44-2.3,0.73c-0.83,0.32-1.78,0.68-2.36,0.66
		c-0.21-0.38-0.25-1.62-0.27-2.23c-0.02-0.53-0.04-1.03-0.09-1.47l-0.03-0.27c-0.66-5.46-1.35-11.11-1.22-16.65
		c0.09-3.93-0.52-7.94-1.12-11.81c-0.47-3.07-0.96-6.24-1.07-9.28c-0.01-0.2-0.06-0.81-0.14-1.69c-0.85-9.6-0.74-12.4-0.51-13.06
		c-0.09,0.26-0.58,0.74-1.27,0.66l0.34-2.98l-0.35-0.04c-6.88-0.79-19.68-2.26-22.01,7.18c-0.65,2.64-0.29,5.4,0.06,8.08
		c0.16,1.19,0.3,2.32,0.35,3.39c0.39,8.3,1.15,16.4,2.25,24.08c0.32,2.26,0.36,4.43,0.4,6.73c0.04,2.58,0.09,5.24,0.57,8
		c1.29,7.3,2.04,14.91,2.77,22.26c0.39,3.97,0.8,8.06,1.29,12.07c-14.71,1.55-28.36,10.8-35.47,25.43
		c-4.04,8.3-7.28,15.61-9.91,22.34c-3.35,8.57-6.82,17.43-11.58,25.57l-0.05,0.09c-4.72,8.04-10.06,17.16-8.21,27.42
		c0.95,5.27,3.96,9.85,6.87,14.29c0.61,0.93,1.21,1.85,1.79,2.76l9.54,15.15c0.13,1.21,0.49,2.52,1.21,3.99
		c1.01,5.44,2.92,10.61,5.15,14.6l-1.55,2.98l0.46,0.24c-0.01,0.07-0.03,0.14-0.04,0.21c-3.87-0.26-7.79,1.58-10.02,4.79
		c-1.1,1.6-1.75,3.44-2.32,5.06l-3.39,9.63c-0.46,1.29-0.54,2.47-0.52,3.58l-0.54-0.08c-0.21,1.5,0.06,3.07,0.76,4.42l0.56-0.29
		c-1.63,3.09-1.44,6.64-0.76,10.16l-0.07,0.04c0.05,0.08,0.08,0.17,0.12,0.25c0.07,0.36,0.15,0.73,0.23,1.09l0.25-0.06
		c0.32,0.79,0.55,1.61,0.69,2.44c-5.53,0.23-10.82,3.96-12.89,9.09l0.08,0.03c-2.81,0.51-5.82,0.61-8.25,0.23
		c-9.44-1.5-16.49-5.46-20.95-11.76c-5.44-7.68-7.01-18.85-4.55-32.3c2.12-11.61,6.05-22.94,9.85-33.9
		c4.14-11.93,8.41-24.27,10.42-37.1c0.15-0.94,0.24-1.9,0.12-2.84c2.7-3.64,4.34-8.18,3.42-12.58c-0.31-1.49-0.7-2.84-1.04-4.03
		c-1.19-4.2-1.98-6.97,0.99-11.86l0.48-0.79l-0.49-0.79c-0.65-1.03-1.85-1.68-3.37-1.82c-2.15-0.2-4.59,0.58-5.91,1.87
		c-0.58-0.03-1.99-0.74-2.69-1.09c-0.96-0.48-1.72-0.86-2.4-0.96c-2.49-0.36-4.76-0.18-7,0.58c-3.21-2.03-13.18-2.92-14.8-2.51
		c-5.8,1.46-11.96,6.43-15.06,10.58c-0.28,0.38-0.6,0.79-0.94,1.24c-3.93,5.16-10.51,13.77-6.91,19.96
		c-1.26-0.1-2.48-0.28-3.62-0.54c-2.54-0.58-5.27,0.21-6.95,2c-3.56,3.8-5.49,9.17-5.16,14.36c0.33,5.2,2.93,10.27,6.95,13.58
		c2.7,2.22,6.15,3.35,9.96,3.35c2.94,0,6.1-0.67,9.26-2.03c0.83-0.35,1.57-0.75,2.28-1.18c-15.6,29.25-22.49,55.57-21.05,80.28
		c0.72,12.41,3.9,25.11,9.72,38.84c6.78,15.99,20.69,28.58,39.17,35.45c0.67,0.25,1.36,0.47,2.03,0.7
		c-3.08,9.08-2.75,19.27,0.86,27.74c-6.55,1.05-12.89,2.96-17.3,7.73c-0.55,0.59-1.06,1.22-1.5,1.86c-0.38,0.54-0.65,0.87-0.87,1.15
		c-0.56,0.69-0.91,1.15-1.5,2.53l-0.16,0.38l0.05,0.4c1.24,9.74,0.98,19.7,0.74,29.33c-0.12,4.73-0.25,9.62-0.19,14.45
		c0.03,3.22-0.13,6.5-0.29,9.68c-0.18,3.59-0.36,7.3-0.26,10.95c0.19,7.02,0.31,14.17,0.43,21.08c0.15,8.37,0.3,17.02,0.56,25.54
		c0.03,0.81,0.37,1.54,1,2.11c1.43,1.3,4.33,1.67,7.57,1.67c1.45,0,2.97-0.07,4.45-0.17c0.28-0.02,0.51-0.03,0.67-0.04
		c0.87-0.04,1.78-0.06,2.7-0.08c6.53-0.14,14.66-0.31,15.58-9.53c0.19-1.91,0.24-3.78,0.29-5.59c0.04-1.66,0.09-3.37,0.24-5.07
		c0.26-2.82,0.05-5.58-0.15-8.26c-0.17-2.3-0.34-4.48-0.22-6.66c0.15-2.9,0.44-5.86,0.7-8.4c0.09-0.89,0.1-1.97,0.12-3.11
		c0.03-2.14,0.06-4.81,0.69-6.09c0.28-0.56,1.48-1.93,6.69-2.48c0.53-0.06,1.05-0.11,1.56-0.15c3.19-0.3,6.2-0.59,9.52-2.15
		c1.54-0.72,3.53-1.77,5.59-3.15c-3.65,14.06-7.22,28.33-10.62,42.48c-0.46,1.93,0.65,4.14,1.32,5.46l0.14,0.28
		c0.54,1.08,0.8,1.55,1.76,2.57c1.69,1.78,3.77,2.11,5.6,2.4c0.59,0.09,1.15,0.18,1.69,0.31c4.11,0.99,8.35,1.66,13.77,2.16
		c0.51,0.05,1.02,0.14,1.54,0.23c2.12,0.37,4.75,0.82,6.76-1.5c1.65-1.91,2.32-5.29,2.91-8.27c0.2-0.99,0.38-1.92,0.57-2.64
		l0.23-0.85c1.31-4.81,2.67-9.78,3.58-14.81c0.22-1.21,0.23-2.57,0.24-3.88c0.02-2.91,0.04-5.66,2.06-7
		c2.14-1.42,6.52,0.48,8.17,1.19c2.33,1.01,2.74,3.27,2.68,7.09l-0.41,24.79c-0.03,2.08,1.53,3.87,4.41,5.04
		c1.75,0.71,5.9,1.75,8.81,1.75c0.6,0,1.15-0.04,1.62-0.15l10.95-2.39c2.26-0.49,4.79-1.2,6.11-3.41c0.07-0.12,0.13-0.25,0.19-0.37
		c0.79,1.08,2.16,1.9,2.9,2.28c3.7,1.93,9.25,1.75,12.96,0.76c0.04,0.94,0.04,1.93,0.04,2.9c0,1,0,2.04,0.04,3.02
		c0.02,0.37-0.16,0.6-1.08,1.33c-0.42,0.33-0.89,0.71-1.32,1.18c-3.31,3.61-4.19,8.93-2.24,13.54c1.57,3.72,5.44,7.69,9.78,8.08
		c0.26,0.02,0.51,0.03,0.76,0.03c3.63,0,6.66-2.25,8.21-3.66c2.06-1.88,3.46-5.2,3.9-7.49c0.32-1.69-0.48-3.68-1.94-4.83
		c-1.19-0.94-2.61-1.14-3.92-0.56c-1.19,0.53-2,1.56-2.72,2.46c-0.62,0.78-1.2,1.52-1.8,1.66c-0.13,0.03-0.2,0.02-0.31-0.07
		c-0.45-0.34-0.89-1.42-0.93-2.3c-0.02-0.38-0.02-0.47,1.26-0.96c0.94-0.36,2.11-0.81,2.86-1.94c1.16-1.73,0.96-4.23,0.81-6.24
		c-0.04-0.48-0.07-0.94-0.08-1.33l-0.02-0.72c-0.08-2.25-0.07-3.68,1.01-4.88l-0.07-0.06c0.23-0.31,0.41-0.59,0.55-0.82
		c0.05-0.08,0.1-0.17,0.15-0.24l0.3-0.1c2.66-1,5.84-1.03,8.92-1.06c5.62-0.06,11.99-0.12,14.93-6.73l0.16-0.36l-0.04-0.4
		c-0.16-1.56-0.21-3.14-0.2-4.74c1.2,3.29,3.04,6.38,5.86,8.4c1.73,1.24,3.72,1.79,5.62,2.21c3.55,0.77,7.25,1.16,11.01,1.16
		c4.78,0,9.66-0.62,14.48-1.87c3.42-0.88,7.67-2.34,10.17-5.86c1.59-2.24,2.18-4.91,2.69-7.26c3.97,9.91,15.11,18.21,25.37,18.72
		c0.49,0.02,0.98,0.04,1.46,0.04c7.14,0,13.85-2.6,18.58-6.97c0.51,0.87,1.36,1.59,2.42,1.97c0.85,0.31,1.73,0.38,2.54,0.38
		c0.43,0,0.84-0.02,1.22-0.04l9.87-0.52l0.42-0.61c3.14-4.61,3.48-10.08,3.8-15.38c0.05-0.76,0.09-1.53,0.15-2.29
		c0.04-0.53,0.07-1.36,0.11-2.39c0.19-4.88,0.69-17.83,3.72-20.6c0.36-0.33,0.63-0.36,0.83-0.35l0.54,0.03l0.44-0.33
		c0.79-0.59,1.09-0.55,2.8,0.03l0.45,0.15l0.42-0.13c0.24,0.27,0.61,0.68,1.22,1.05c0.52,0.32,1,2.12,0.35,8.83
		c-0.09,0.91-0.16,1.63-0.17,2.14c-0.06,2.66,0.18,5.28,0.42,7.82c0.18,1.91,0.36,3.88,0.4,5.81c0.02,0.76,0.02,1.49,0.03,2.22
		c0.03,3.76,0.05,7.3,1.65,11.26l0.17,0.42l0.37,0.25c2.3,1.6,5.45,2.24,8.2,1.68l0.95-0.2c1.95-0.42,2.54-0.54,4.67-0.15
		c2.18,0.4,4.11-0.12,5.58-1.5c4.79-4.51,3.84-17.36,2.7-26.63L677.7,570.75z M499.3,134.63l0.47,0.05
		c0.56-5.06,0.95-10.18,1.34-15.14c0.31-4,0.64-8.1,1.04-12.19c0.53-3.17,1.1-6.33,1.75-9.44l-0.37-0.08
		c1.17-3.98,3.35-6.34,6.52-7.02c6.53-1.38,12.16-1.59,17.19-0.62c5.82,1.12,7.82,5.39,9.02,11.46c0.69,3.48,1.33,7.19,2.08,12.04
		c0.43,2.76,0.83,5.53,1.23,8.3c0.74,5.07,1.5,10.31,2.4,15.46c0.53,2.99,1.13,6,1.71,8.91c1.54,7.73,3.14,15.72,3.38,23.74
		c0.13,4.07-0.35,7.05-3.08,8.36c-3.14,1.51-9.9,2.48-13.36,0.55c-1.28-0.71-1.97-1.75-2.12-3.17c-0.37-3.58-0.47-7.28-0.57-10.85
		c-0.11-3.92-0.22-7.97-0.68-11.95c-0.1-0.86-0.9-1.9-1.72-2.23c-0.5-0.2-1.03-0.17-1.48,0.08c-0.06-0.01-0.11-0.02-0.17-0.03
		l-0.25-0.04c-0.31-0.04-3.05-0.36-4.53,0.89c-0.56,0.47-0.88,1.11-0.9,1.81c-0.32,8.51-1.56,17-3.67,25.25
		c-0.16,0.64-0.34,1.24-0.64,1.51c-0.04,0.03-0.14,0.07-0.19,0.06c0.04,0.01,0.15,0.06,0.22,0.17l-1.11,0.7
		c-2.47-0.17-4.93-0.22-7.36-0.17c0.31-0.4,0.54-0.95,0.48-1.73c-0.09-1.38-0.15-2.81-0.2-4.27c-0.21-5.49-0.43-11.16-2.61-16.06
		c-0.39-0.87-0.68-1.8-0.97-2.71c-0.5-1.57-1.04-3.24-2.07-4.52C499.42,146.18,499.16,140.51,499.3,134.63z M456.85,151.23
		c-0.44-2.52-0.48-4.95-0.53-7.53c-0.04-2.29-0.08-4.66-0.43-7.11c-1.09-7.58-1.83-15.59-2.22-23.8c-0.06-1.19-0.22-2.43-0.38-3.64
		c-0.31-2.4-0.64-4.89-0.12-6.97c1.56-6.35,11.14-5.75,17.29-5.08c-0.16,1.93-0.03,5.57,0.61,12.87c0.07,0.8,0.12,1.35,0.13,1.53
		c0.12,3.21,0.62,6.47,1.1,9.63c0.58,3.75,1.17,7.62,1.08,11.28c-0.14,5.76,0.56,11.52,1.24,17.09l0.03,0.27
		c0.04,0.36,0.05,0.77,0.07,1.21c0.06,1.71,0.16,4.89,2.98,5.12c1.25,0.1,2.51-0.38,3.73-0.85c0.66-0.25,1.27-0.49,1.76-0.58
		c1.35-0.24,2.71-0.57,4.03-0.89c2.79-0.68,5.43-1.32,8.1-1.21c0.83,0.03,1.44,0.24,1.93,0.6c0.03,0.21,0.05,0.43,0.08,0.64
		l0.51-0.07c0.59,0.76,0.98,1.89,1.47,3.44c0.31,0.98,0.64,2,1.09,3.02c1.94,4.38,2.15,9.76,2.35,14.96
		c0.05,1.4,0.11,2.77,0.19,4.12c-0.01,0.01-0.02,0.01-0.03,0.02c-0.31,0.17-0.74,0.41-1.13,0.8c-0.07,0.05-0.16,0.07-0.24,0.1
		c-0.37,0.15-1,0.44-1.43,1.12c-1.66,0.15-3.31,0.34-4.94,0.59c-7.25,1.12-14.36,3.03-21.11,5.6c-4.34-1.27-8.75-1.81-13.11-1.66
		c-0.49-4.02-0.9-8.15-1.3-12.15C458.92,166.3,458.16,158.64,456.85,151.23z M412.61,301.15c-0.44,1.55-0.53,3.11-0.58,4.82
		c-0.02,0.67,0,1.33,0.02,2c0.01,0.2,0.01,0.39,0.01,0.59c-0.38,1.77-0.59,3.59-0.65,5.45c-0.01,0.06-0.03,0.12-0.04,0.18
		l-7.45-11.83c-0.58-0.93-1.2-1.86-1.82-2.8c-2.75-4.18-5.59-8.5-6.43-13.17c-1.65-9.17,3.18-17.4,7.85-25.37l0.05-0.09
		c4.89-8.34,8.4-17.31,11.79-25.99c2.6-6.66,5.82-13.9,9.82-22.12c8.41-17.29,26.56-26.54,44.11-23.34
		c-7.55,3.32-14.56,7.48-20.67,12.38c-2.81,2.25-5.46,5-8.01,7.66c-1.57,1.64-3.2,3.33-4.8,4.84l0.52,0.55
		c-10.39,10.3-17.56,25.05-24.03,39.44c-2,4.45-2.6,13.08-2.96,18.23l-0.03,0.43c-0.3,4.34,0.74,8.38,1.76,12.28
		c0.74,2.86,1.44,5.56,1.66,8.38C412.9,296.15,412.85,298.66,412.61,301.15z M414.42,314.29c0.2-0.88,0.4-1.8,0.53-2.83
		c0.11-0.86,0.13-1.71,0.12-2.55c0.13-0.57,0.28-1.13,0.45-1.68l0.16,0.03c0.6-3.83,2.47-8.79,5.92-11.24
		c2.26-1.6,7.51-3.26,8.7-2.07c0.99,0.99,1.88,2.16,2.66,3.47c-0.03-0.02-0.06-0.04-0.1-0.05c-1.34-0.62-2.8-0.56-4.22,0.19
		c-3.76,1.99-7.11,8.86-8.52,17.51c-1.21,7.41-0.29,14.33,2.42,18.05c0.25,0.34,0.51,0.65,0.79,0.93c-1.25,0.25-2.68,0.45-3.58,0.51
		l-0.7,0.05C416.18,328.83,414.22,321.24,414.42,314.29z M403.26,361.61l3.39-9.63c0.53-1.52,1.08-3.08,1.96-4.35
		c1.52-2.2,4.24-3.54,6.92-3.52c-1.33,6.29-3.1,14.28-5.71,21.88c-0.88-0.83-2.08-1.36-3.39-1.45c-1.27-0.09-2.51,0.24-3.48,0.91
		c0-0.05,0-0.12-0.01-0.17C402.88,363.92,402.83,362.83,403.26,361.61z M404.32,368.22c0.42-0.48,1.14-0.73,1.91-0.68
		c0.77,0.05,1.45,0.4,1.8,0.94l1.2-0.8c-1.56,4.32-3.4,8.46-5.59,12.03c-0.21-0.68-0.48-1.33-0.79-1.97
		C402.08,373.71,402.16,370.66,404.32,368.22z M401.65,382.64c-0.13,0.17-0.26,0.33-0.39,0.5l-0.02-0.45L401.65,382.64z
		 M399.28,385.45c-2.11,2.2-4.47,3.88-7.11,4.84C393.83,387.88,396.44,386.11,399.28,385.45z M328.54,253.29
		c0.35-0.46,0.67-0.88,0.96-1.27c3.19-4.27,8.94-8.34,13.39-9.46c1.24-0.31,7.15,0.45,10.42,1.3c-4.72,2.66-8.76,6.42-11.75,10.96
		c-1.02,1.55-1.92,3.38-2.79,5.16c-1.5,3.05-3.05,6.21-5.24,8.08c-2.52,2.15-6.48,4.1-9.16,3.66c-0.14-0.02-0.27-0.05-0.4-0.09
		l-0.02-0.22c-0.16,0.01-0.33,0.03-0.49,0.04c-0.65-0.29-1.18-0.78-1.6-1.47C319.2,265.53,325.27,257.57,328.54,253.29z
		 M328.5,299.4c-6.2,2.67-12.23,2.34-16.13-0.87c-3.39-2.79-5.58-7.08-5.86-11.46c-0.28-4.38,1.35-8.91,4.35-12.11
		c0.73-0.78,1.93-1.24,3.12-1.24c0.33,0,0.66,0.04,0.98,0.11c2.48,0.56,5.3,0.79,8.07,0.66c0.28,0.08,0.57,0.15,0.86,0.2
		c4.31,0.71,9.31-2.39,11.59-4.34c2.67-2.28,4.36-5.72,5.99-9.05c0.87-1.77,1.68-3.44,2.6-4.83c3.02-4.59,7.22-8.31,12.15-10.76
		c0.34-0.17,0.68-0.32,1.02-0.46l0.06,0.07c0.06-0.05,0.12-0.11,0.18-0.16c1.95-0.74,3.86-0.93,6.04-0.62c0.24,0.05,1,0.43,1.5,0.68
		c2.02,1.01,4.54,2.27,6.09,0.59c0.56-0.61,2.17-1.2,3.57-1.07c0.15,0.01,0.29,0.04,0.41,0.06c-2.82,5.32-1.8,8.91-0.62,13.03
		c0.34,1.2,0.7,2.44,0.99,3.83c1.2,5.71-3.13,11.87-7.81,14.76c-2.87,1.78-5.81,1.9-8.92,2.02c-3.35,0.14-6.81,0.28-10.35,2.45
		c-0.56,0.35-1.51,0.92-2.01,1.94c-0.19,0.38-0.22,0.74-0.17,1.05c-3.08,2.21-7.13,5.19-10.47,7.91l-0.33,0.27l-0.14,0.4
		C334.11,295.74,332.02,297.88,328.5,299.4z M360.84,452.73c-17.7-6.58-31-18.58-37.45-33.81c-5.68-13.4-8.78-25.78-9.49-37.84
		c-1.51-25.81,6.34-53.51,24-84.69c1.27-2.23,2.46-4.18,4.21-5.38l-0.18-0.27c3.29-2.49,6.6-4.86,8.64-6.3l2.18-1.53l-0.92-0.4
		c2.27-0.88,4.59-0.97,7.01-1.07c3.36-0.14,6.83-0.28,10.37-2.47c0.84-0.52,1.66-1.14,2.46-1.83c-2.04,12.16-6.12,23.98-10.09,35.43
		c-3.83,11.06-7.8,22.5-9.96,34.34c-2.61,14.27-0.86,26.22,5.06,34.57c4.95,6.99,12.66,11.36,22.93,12.99
		c1.17,0.19,2.44,0.28,3.75,0.28c3.25,0,6.75-0.55,9.66-1.58c16.55-5.84,22.41-33.9,25.91-50.67c0.18-0.87,0.35-1.69,0.52-2.48
		l1.34-2.58c1.66-0.18,4.07-0.59,5.46-1.12c0.41-0.15,0.8-0.32,1.2-0.51c2.44-0.06,4.89-1.82,6.97-5.08
		c0.63-0.99,1.21-2.09,1.74-3.28c1.26-2.27,2.23-4.87,2.85-7.77c2.21-10.32-0.51-21.79-6.6-27.88c-3.19-3.19-10.72,0.44-12.56,1.75
		c-1.73,1.23-3.05,2.84-4.07,4.52c0.04-1.55,0.02-3.11-0.09-4.66c-0.23-3.08-1-6.04-1.74-8.91c-1-3.84-1.94-7.47-1.67-11.32
		l0.03-0.43c0.35-4.95,0.93-13.24,2.71-17.21c7.17-15.95,15.19-32.35,27.44-42.16l-0.66-0.82c0.32-0.33,0.64-0.66,0.95-0.99
		c2.49-2.59,5.06-5.27,7.72-7.4c6.9-5.51,14.96-10.09,23.67-13.51c0.52,0.17,1.04,0.34,1.56,0.53l0.47-1.29
		c6.24-2.29,12.77-4,19.44-5.04c11.26-1.74,23.5-0.86,35.4,2.57c18.4,5.3,36.06,18.37,51.08,37.8c-0.11,0.11-0.2,0.22-0.29,0.33
		c-0.63,0.82-0.64,1.56-0.55,2.04c0.11,0.56,0.46,1.02,0.96,1.27c0.98,0.48,2.03-0.05,2.95-0.51c0.18-0.09,0.35-0.18,0.47-0.23
		l1.7-0.66l-0.98-1.54c-0.01-0.01-0.01-0.02-0.02-0.03c6.25-3.06,23.49-7.53,26.74-7.75c13.81-0.92,26.59,3.03,35.99,11.12
		c9.3,8.01,14.5,19.89,15.45,35.32c0.76,12.33-1.51,24.72-3.71,36.71l-0.46,2.52c-1,5.47-1.22,11.08-1.43,16.51
		c-0.25,6.23-0.5,12.67-1.95,18.76c-1.79,7.51-6.99,14.1-16.37,20.76c-0.64,0.46-1.3,0.93-1.96,1.41c-3.93,2.85-8,5.79-12.42,7.02
		c-2.71,0.76-5.03,0.01-7.71-0.85c-2.52-0.81-5.12-1.64-8.23-1.23c-2.06,0.27-4.2,1.3-6.28,2.3c-2.44,1.18-4.97,2.39-6.89,2.1
		c-1.69-0.26-4.2-2.03-6.6-8.98c-0.72-2.09-1.65-2.92-2.46-3.66c-0.61-0.55-1.14-1.03-1.73-2.17c-1.13-2.2-1.75-2.6-3.58-3.02
		c-0.17-0.04-0.35-0.08-0.56-0.13c4.61-6.75,8.8-13.79,12.54-21.04l-2.67-1.37c-5.17,10.05-11.25,19.69-18.09,28.7l-0.29-0.23
		c-3.4,4.32-7.21,8.36-11.32,12.02l0.04,0.05c-0.65,0.26-1.28,0.54-1.88,0.83c-3.36,1.63-6.42,3.71-9.32,5.92
		c-0.64,0.48-1.27,0.98-1.9,1.49l-0.43-0.75c-3.4,1.95-11.57,5.53-18.17,8.21l1.13,2.78c4.01-1.63,8.61-3.59,12.4-5.34
		c-0.36,0.41-0.73,0.82-1.08,1.25c-1.17,1.46-2.23,3.01-3.14,4.66c-0.92,1.66-1.66,3.34-2.34,5.06c-0.67,1.71-1.25,3.45-1.8,5.18
		l-0.79,2.59l-0.39,1.29l-0.21,0.69c-0.03,0.12-0.08,0.3-0.07,0.59c0,0.14,0.02,0.32,0.09,0.52c0.09,0.23,0.12,0.34,0.39,0.64
		c0.27,0.28,0.59,0.41,0.86,0.46c0.27,0.05,0.5,0.04,0.75-0.02c0.24-0.07,0.53-0.17,0.84-0.51c0.33-0.32,0.48-1.06,0.33-1.46
		l-0.12,0.03l0.02-0.08l0.39-1.29l0.78-2.55c0.53-1.69,1.09-3.36,1.73-4.98c1.26-3.27,2.85-6.27,5.03-8.94
		c2.15-2.7,4.69-5.01,7.52-7.12c2.8-2.14,5.71-4.1,8.81-5.6c1.57-0.77,3.07-1.36,4.7-1.69c1.62-0.34,3.3-0.44,4.98-0.37
		c3.36,0.15,6.75,0.99,9.84,2.39c3.09,1.39,5.92,3.38,8.48,5.72c2.55,2.35,4.86,5.01,7.03,7.79c2.18,2.78,4.22,5.7,6.28,8.63
		c2.08,2.96,4.17,5.82,6.13,8.79c3.97,5.93,7.72,12.04,11.75,18.02c1.01,1.49,2.03,2.98,3.08,4.45c1.07,1.49,2.04,2.87,2.96,4.37
		c1.85,2.96,3.37,6.12,4.6,9.38c2.47,6.51,3.54,13.55,2.93,20.45c-0.34,3.4-1.23,6.74-2.61,9.89c-1.42,3.13-3.26,6.08-5.47,8.75
		c-2.21,2.67-4.71,5.12-7.45,7.29c-2.76,2.16-5.66,4.3-8.59,6.19c-1.48,0.95-2.98,1.83-4.52,2.59c-0.77,0.39-1.55,0.73-2.34,1.06
		c-0.82,0.32-1.64,0.65-2.47,0.95c-3.31,1.23-6.69,2.3-10.11,3.21c-3.42,0.92-6.88,1.68-10.37,2.3c-3.48,0.63-6.98,1.01-10.57,1.4
		c-3.57,0.4-7.21,0.84-10.81,1.74c-1.78,0.43-3.62,1.05-5.28,1.71c-1.67,0.64-3.33,1.26-5.01,1.86c-3.35,1.19-6.72,2.27-10.13,3.12
		c-0.85,0.21-1.71,0.41-2.57,0.59l-2.65,0.58l-5.25,1.23c-6.97,1.66-13.84,3.09-20.89,2.77c-3.58-0.06-7.12-0.11-10.58-0.53
		c-2.97-0.35-5.87-1.03-8.62-2.08c0.06-0.11,0.11-0.22,0.17-0.33c0.31-0.6,0.68-1.22,0.96-2.14c0.15-0.55,0.17-0.83,0.23-1.24
		c0.05-0.39,0.08-0.8,0.06-1.24c-0.02-0.89-0.26-1.79-0.58-2.52l-0.24-0.54l-0.52-0.24c-0.56-0.25-1.09-0.54-1.67-0.88
		c-0.58-0.34-1.24-0.7-1.91-1l-0.39-0.18l-0.42,0.05c-0.59,0.07-1.21,0.17-1.79,0.29c-0.58,0.12-1.05,0.22-1.57,0.29l-0.39,0.05
		c-0.18,0.03-0.44,0.07-0.63,0.13c-0.4,0.11-0.74,0.26-1.04,0.4c-0.6,0.29-1.09,0.6-1.53,0.83c-0.22,0.12-0.42,0.21-0.58,0.27
		c-0.1,0.04-0.12,0.04-0.24,0.07l-0.35,0.08c-0.33,0.06-0.62,0.08-0.91,0.08c0.08-0.04,0.16-0.08,0.25-0.13
		c0.22-0.12,0.5-0.26,0.81-0.49c0.31-0.21,0.68-0.68,0.74-0.76c0.27-0.33,0.52-0.62,0.8-0.87l1.03-0.9c0.77-0.7,1.37-1.3,2.07-1.96
		c0.68-0.65,1.37-1.31,2.04-2.03c1.33-1.42,2.68-3.02,3.41-5.19c0.32-1.08,0.5-2.3,0.26-3.47c-0.02-0.3-0.13-0.57-0.2-0.85
		c-0.09-0.27-0.15-0.57-0.28-0.82c-0.25-0.49-0.46-1.04-0.78-1.46c-0.55-0.89-1.32-1.82-2.32-2.48c-0.99-0.68-2.19-1.04-3.33-1.13
		c-2.31-0.16-4.33,0.54-6.15,1.37c-1.82,0.85-3.47,1.92-5.02,3.08c-1.28,0.96-2.49,1.99-3.64,3.11c-0.21-0.14-0.29-0.25-0.28-0.24
		c-0.03-0.04-0.05-0.17-0.02-0.32c0,0,0,0,0-0.01c0.22-0.1,0.56-0.29,0.87-0.66l0.4-0.6c0.19-0.29,0.41-0.57,0.65-0.85
		c0.47-0.56,1.03-1.09,1.63-1.66c1.18-1.11,2.63-2.5,3.36-4.42c0.38-0.93,0.5-1.96,0.56-2.87c0.04-0.87,0.06-1.8-0.17-2.85
		c-0.13-0.53-0.33-1.08-0.67-1.61c-0.34-0.52-0.83-0.96-1.32-1.26c-0.5-0.32-1.01-0.49-1.5-0.64c-0.46-0.12-1.01-0.24-1.55-0.25
		c-0.26-0.01-0.52,0-0.75,0.02c0-0.05,0.01-0.06,0-0.09c-0.01-0.02,0.02-0.09,0.02-0.13c0.05-0.22,0.18-0.54,0.34-0.85
		c0.64-1.28,1.69-2.6,2.59-4.07l1.32-2.04l1.4-1.98c7.69-10.43,18.49-18.44,30.43-23.59c2.98-1.31,6.04-2.44,9.16-3.36
		c3.12-0.94,6.28-1.73,9.5-2.3c6.42-1.19,12.96-1.66,19.52-1.69c6.55-0.01,13.13,0.36,19.67,1.01l19.67,2.07
		c-3.16-1.01-6.38-1.81-9.63-2.5c-0.26-0.06-0.53-0.1-0.79-0.16c0.23-0.12,0.45-0.24,0.66-0.39l1.46-0.95l1.51-0.88
		c2.04-1.14,4.19-2.09,6.39-2.95c2.21-0.83,4.47-1.56,6.8-2.08c2.32-0.56,4.66-1.02,7.09-1.55l0-0.06
		c-2.43-0.59-4.95-0.61-7.42-0.35c-2.47,0.29-4.93,0.75-7.33,1.47c-2.41,0.7-4.74,1.65-6.98,2.82c-1.11,0.6-2.21,1.24-3.27,1.94
		c-0.53,0.36-0.98,0.83-1.36,1.37c-0.29,0.19-0.33,0.66-0.42,1.08c-2.04-0.35-4.1-0.63-6.16-0.85c-6.6-0.72-13.22-1.13-19.88-1.17
		c-6.65-0.02-13.33,0.41-19.92,1.58c-3.3,0.56-6.56,1.34-9.77,2.29c-3.22,0.93-6.37,2.07-9.45,3.39
		c-12.31,5.21-23.54,13.39-31.65,24.2l-1.48,2.05l-1.39,2.11c-0.82,1.34-1.87,2.61-2.74,4.27c-0.21,0.43-0.42,0.87-0.57,1.45
		c-0.03,0.16-0.07,0.28-0.09,0.47c-0.01,0.13-0.02,0.28-0.02,0.4c-3.43,3.03-5.5,7.59-5.49,12.17c-20.86-4.79-36.38-2.96-46.1,5.49
		c-1.95,1.7-2.52,4.31-2.79,6.4c-0.06,0.45-0.14,0.88-0.22,1.32c-3.82-7.82-9.87-14.44-17.9-17.32c0.31-5.89,2.88-11.4,5.38-16.74
		c0.89-1.91,1.8-3.88,2.62-5.85c9-0.5,17.98-2.23,26.63-5.23c35.2-12.22,61.06-30.32,76.86-53.81c0.85-1.26,1.13-1.9,1.41-2.52
		c0.21-0.47,0.42-0.93,0.93-1.73c1.32-1,2.45-2.13,3.35-3.39c0.48,0.47,1.13,0.76,1.68,0.84c0.26,0.04,0.53,0.05,0.79,0.05
		c1.86,0,3.78-0.86,5.27-2.38c1.47-1.51,2.34-3.41,3-5.07c0.76-1.91,1.37-3.85,1.89-5.82c3.8-1.16,9.74-3.98,12.13-7.5
		c0.36,0.35,0.82,0.65,1.43,0.82c1.06,0.3,2.17,0.45,3.28,0.45c1.36,0,2.71-0.22,3.99-0.67c2.63-0.92,4.55-2.69,5.29-4.88
		l-2.84-0.96c-0.43,1.28-1.71,2.4-3.43,3c-1.75,0.61-3.69,0.67-5.46,0.17c-0.23-0.07-0.38-0.33-0.71-1.12
		c-0.15-0.35-0.3-0.7-0.48-1.04l-0.19,0.1c-0.18-0.76-0.48-1.47-0.77-2.1c-0.27-0.59-0.52-1.15-0.64-1.69
		c-0.48-2.14-0.23-4.48,0.71-6.41l-2.7-1.3c-1.24,2.57-1.57,5.55-0.93,8.38c0.19,0.83,0.53,1.59,0.83,2.25
		c0.57,1.28,0.85,1.98,0.5,2.75c-1.08,2.38-5.44,4.91-9.18,6.32c0.86-4.12,1.38-8.3,1.88-12.39l-2.98-0.36
		c-0.86,7.02-1.75,14.29-4.38,20.91c-0.55,1.38-1.26,2.95-2.36,4.08c-1.03,1.05-2.38,1.61-3.52,1.44c0.18,0.12,0.4,0.69,0.1,1.18
		l-1.13-0.71c0.19-0.36,0.37-0.73,0.52-1.11c3.16-7.82-2.96-15.31-10.64-18.66c-6.34-2.77-13.96-1.97-19.7,1.82
		c-0.5,0.04-0.98,0.25-1.41,0.53c-0.31-1.34-0.3-2.82,0.06-4.18c0.54-2,1.87-3.74,3.65-4.79c2.73-1.6,4.18-3.91,5.58-6.15
		c1-1.6,1.95-3.12,3.36-4.41l0.17-0.16c1.41-1.29,3-2.76,3.82-4.77l-2.78-1.13c-0.56,1.39-1.78,2.51-3.07,3.69l-0.17,0.16
		c-1.71,1.57-2.81,3.33-3.87,5.03c-1.32,2.11-2.46,3.93-4.55,5.15c-2.46,1.44-4.29,3.85-5.03,6.6c-0.69,2.57-0.45,5.38,0.61,7.68
		c-0.11,0.44-0.02,0.8,0.11,1.06c-4.1,6.34-6.33,13.95-6.21,21.48c0.01,0.61,0.03,1.73,0.69,2.67c0.44,0.62,0.95,0.78,1.34,0.78
		c0.26,0,0.47-0.07,0.57-0.11c0.13-0.05,0.65-0.29,0.86-0.89c5.4,0.21,10.86,0.07,16.24-0.42c3.46-0.32,7.12-0.81,10.57-2.13
		c-15.43,22.89-40.76,40.58-75.29,52.56C403.58,460.44,381.07,460.25,360.84,452.73z M537.42,404.95l-2.61,0.72
		c-0.14-0.34,0-1.02,0.29-1.3c0.27-0.3,0.5-0.38,0.69-0.43c0.35-0.07,0.78-0.1,1.29,0.37c0.23,0.26,0.23,0.32,0.3,0.5
		C537.41,404.87,537.41,404.9,537.42,404.95z M475.16,512.31l-0.11-0.24c0.5,0,0.99-0.04,1.44-0.13l0.47-0.1
		c0.16-0.04,0.41-0.11,0.57-0.17c0.36-0.13,0.68-0.28,0.96-0.43c0.56-0.3,1.03-0.58,1.44-0.78c0.2-0.1,0.39-0.17,0.53-0.21
		c0.08-0.02,0.1-0.02,0.2-0.04l0.45-0.06c0.59-0.08,1.23-0.21,1.75-0.32c0.38-0.08,0.74-0.14,1.11-0.19c0.42,0.21,0.85,0.44,1.3,0.7
		c0.41,0.24,0.86,0.48,1.32,0.71c0.1,0.32,0.17,0.63,0.18,0.95c0.01,0.24-0.01,0.51-0.04,0.8c-0.03,0.27-0.09,0.67-0.13,0.77
		c-0.11,0.39-0.41,0.96-0.73,1.57c-0.06,0.13-0.13,0.26-0.2,0.39l-0.42-0.12c-0.17,0.61-0.73,1.18-1.5,1.53
		c-0.89,0.4-1.96,0.51-2.88,0.55c-1.81,0.1-3.09-0.05-4.16-0.47c-1.2-0.47-2.12-1.37-2.4-2.34
		C474.02,513.74,474.43,512.64,475.16,512.31z M474.13,506.15l-0.09-0.31c-1.97,0.58-4.24,0.22-5.94-0.93
		c-1.7-1.15-2.86-3.14-3.05-5.18c-0.06-0.7-0.02-1.43,0.08-2.16l0.26,0.1l0.69-0.71l0.04-0.04c2.47-2.51,5.41-4.8,8.51-6.28
		c1.55-0.72,3.2-1.21,4.63-1.1c1.45,0.11,2.52,0.85,3.36,2.23c0.89,1.32,1.11,2.68,0.67,4.06c-0.45,1.39-1.52,2.76-2.74,4.04
		c-0.61,0.65-1.26,1.28-1.93,1.92c-0.66,0.62-1.38,1.34-1.99,1.89c-0.32,0.29-0.67,0.56-1.08,0.94c-0.41,0.38-0.77,0.79-1.09,1.18
		c-0.23,0.28-0.15,0.19-0.22,0.25C474.23,506.09,474.19,506.12,474.13,506.15z M462.41,491.28l-0.32-0.38
		c-0.05,0.04-0.17,0.05-0.3,0.02c-0.22-0.04-0.45-0.17-0.59-0.33c-0.37-0.44-0.57-1.17-0.59-2.24c-0.1-3.6,1.41-7.23,3.99-9.75
		c0.03,0.01,0.05,0.03,0.08,0.03c0.12,0.03,0.24,0.05,0.36,0.07c0.11,0.01,0.19,0.01,0.28,0.02c0.65,0,0.92-0.05,1.24-0.03
		c0.29,0,0.54,0.07,0.88,0.15c0.29,0.1,0.58,0.19,0.76,0.33c0.4,0.25,0.57,0.53,0.72,1.1c0.13,0.56,0.13,1.31,0.09,2.08
		c-0.06,0.73-0.13,1.37-0.39,1.97c-0.46,1.2-1.45,2.21-2.66,3.33c-0.6,0.56-1.25,1.17-1.85,1.86c-0.3,0.34-0.6,0.72-0.86,1.11
		l-0.2,0.3c-0.02,0.01-0.02,0.01-0.04,0.02C462.86,490.99,462.64,491.09,462.41,491.28z M462.91,491.1
		c-0.01,0.01-0.01,0.02-0.02,0.02C462.9,491.11,462.91,491.11,462.91,491.1z M387.65,483.07c-0.26-0.06-0.52-0.13-0.79-0.18
		c-6.12-1.22-13.19-0.34-19.42,0.44l-1.26,0.16c-0.13,0.02-0.26,0.03-0.39,0.05c-3.64-7.95-4.05-17.69-1.11-26.35
		c9.24,2.87,18.85,4.32,28.5,4.32c0.69,0,1.38-0.03,2.07-0.04c-0.65,1.5-1.33,2.99-2.02,4.46
		C390.72,471.32,388.14,476.89,387.65,483.07z M479.24,379.16c0.36-0.49,0.74-0.97,1.12-1.44c4.91-3.35,11.68-4.13,17.12-1.76
		c6.35,2.77,11.5,8.74,9.05,14.79c-1.15,2.84-3.79,5.33-7.25,6.84c-3.34,1.46-7.07,1.96-10.61,2.28c-5.45,0.5-10.97,0.63-16.43,0.39
		c0-7.26,2.36-14.57,6.57-20.5h0.77L479.24,379.16z M392.51,552.32c-2.85,1.34-5.48,1.59-8.53,1.88c-0.52,0.05-1.05,0.1-1.59,0.16
		c-5,0.53-7.96,1.88-9.07,4.14c-0.92,1.88-0.96,4.8-0.99,7.37c-0.01,1.07-0.03,2.08-0.1,2.84c-0.27,2.58-0.56,5.59-0.71,8.56
		c-0.12,2.38,0.06,4.75,0.23,7.04c0.19,2.55,0.39,5.19,0.16,7.76c-0.16,1.8-0.21,3.56-0.26,5.26c-0.05,1.84-0.1,3.57-0.27,5.38
		c-0.61,6.13-5.19,6.67-12.66,6.83c-0.94,0.02-1.88,0.04-2.78,0.08c-0.17,0.01-0.42,0.02-0.73,0.04c-8.5,0.56-9.69-0.54-9.82-0.7
		c-0.26-8.49-0.41-17.14-0.56-25.5c-0.12-6.92-0.25-14.07-0.43-21.11c-0.09-3.53,0.09-7.19,0.26-10.72
		c0.16-3.22,0.32-6.55,0.29-9.86c-0.05-4.77,0.07-9.64,0.19-14.34c0.25-9.61,0.5-19.54-0.71-29.37c0.35-0.76,0.54-1,0.91-1.45
		c0.26-0.32,0.57-0.7,1-1.32c0.37-0.53,0.79-1.05,1.25-1.54c4.53-4.9,11.79-6.39,18.95-7.28l1.27-0.16
		c6.01-0.75,12.82-1.6,18.46-0.48c14.98,2.99,23.52,20.01,23.95,34.51c0.21,7.13-1.17,13.88-4.11,20.08
		c-1.01,2.14-2.51,4.01-4.18,5.62l-0.34-0.1c-0.06,0.2-0.13,0.4-0.19,0.6C398.38,549.29,394.87,551.21,392.51,552.32z M470.69,601.2
		c-0.7,1.17-2.45,1.64-4.18,2.02l-10.95,2.39c-1.66,0.37-6.37-0.53-8.66-1.46c-1.24-0.5-2.55-1.34-2.54-2.2l0.41-24.79
		c0.05-2.95,0.13-7.89-4.48-9.89c-3.51-1.52-7.93-3-11.02-0.94c-3.34,2.22-3.37,6.24-3.4,9.47c-0.01,1.24-0.02,2.41-0.19,3.37
		c-0.88,4.9-2.22,9.8-3.52,14.55l-0.23,0.85c-0.22,0.81-0.42,1.8-0.62,2.84c-0.49,2.49-1.1,5.58-2.24,6.89
		c-0.82,0.94-1.84,0.88-3.98,0.51c-0.57-0.1-1.17-0.2-1.77-0.26c-5.27-0.49-9.38-1.14-13.34-2.09c-0.66-0.16-1.31-0.26-1.93-0.36
		c-1.62-0.25-2.9-0.46-3.89-1.5c-0.69-0.73-0.79-0.92-1.25-1.84l-0.14-0.28c-0.39-0.76-1.29-2.55-1.08-3.41
		c3.31-13.81,6.8-27.75,10.36-41.49l0.09,0.04c0.7-1.78,1.32-3.6,1.9-5.44c1.9-1.83,3.62-3.98,4.8-6.47
		c3.14-6.62,4.62-13.84,4.39-21.45c-0.13-4.51-1.01-9.25-2.58-13.79l0.62-0.2c-0.41-1.29-0.17-2.62,0.12-4.16
		c0.11-0.58,0.22-1.17,0.3-1.77c0.22-1.66,0.6-3.5,1.79-4.53c11.31-9.83,30.32-8,44.66-4.56c0.19,0.45,0.43,0.89,0.78,1.3
		c0.58,0.68,1.43,1.17,2.32,1.34c0.06,0.01,0.13,0.01,0.19,0.02c0.02,0.4,0.1,0.8,0.28,1.21c0.15,0.35,0.41,0.7,0.65,0.94
		c-0.24,1.27-0.4,2.6-0.28,3.96c0.26,2.96,1.89,5.73,4.35,7.4c0.49,0.33,1.01,0.6,1.54,0.84l2.03,29.06
		c0.24,3.42,0.49,6.96,0.4,10.42c-0.05,2.08-0.23,4.21-0.4,6.26c-0.16,1.89-0.32,3.84-0.39,5.78c-0.13,3.52,0.04,7.05,0.2,10.47
		l1.31,27.62C471.17,599.24,471.19,600.38,470.69,601.2z M471.02,509.04c0.22,0.02,0.45,0.04,0.67,0.05
		c-0.07,0.23-0.13,0.5-0.14,1.01c0.01,0.13,0.02,0.24,0.05,0.39c0.02,0.1,0.06,0.2,0.09,0.29c0.03,0.09,0.08,0.18,0.18,0.32
		c0.04,0.06,0.1,0.11,0.15,0.16c-0.36,0.56-0.59,1.21-0.71,1.88L471.02,509.04z M523.58,582.6c-0.23,4.01-0.47,8.16-0.11,12.14
		c-2.09,4.28-5.98,4.54-12.06,4.61c-3.26,0.03-6.63,0.07-9.72,1.17c-1.24,0.13-1.8,1.04-2.18,1.66c-0.19,0.32-0.39,0.64-0.7,0.98
		l0.09,0.08c-1.43,2.02-1.37,4.32-1.3,6.38l0.02,0.69c0.01,0.44,0.05,0.95,0.09,1.49c0.12,1.46,0.27,3.47-0.31,4.34
		c-0.22,0.33-0.82,0.57-1.45,0.81c-1.23,0.48-3.3,1.27-3.17,3.91c0.05,1.13,0.56,3.37,2.12,4.55c0.83,0.63,1.8,0.84,2.8,0.6
		c1.62-0.37,2.6-1.62,3.47-2.72c0.55-0.69,1.07-1.35,1.58-1.58c0.12-0.05,0.39-0.17,0.84,0.18c0.56,0.44,0.96,1.34,0.85,1.92
		c-0.4,2.15-1.68,4.65-2.97,5.83c-1.04,0.95-3.76,3.11-6.68,2.86c-3.01-0.27-6.07-3.39-7.28-6.26c-1.5-3.54-0.83-7.6,1.68-10.35
		c0.28-0.3,0.62-0.58,0.98-0.87c0.97-0.78,2.3-1.84,2.21-3.82c-0.04-0.9-0.04-1.86-0.04-2.87c0-1.37,0.01-2.79-0.11-4.12
		c-0.09-1.01-0.94-1.83-2.01-1.94c-0.57-0.06-1.06,0.08-1.51,0.21c-3.25,0.91-8.07,1.04-10.98-0.48c-0.81-0.42-1.77-1.16-1.92-1.48
		c0.08,0.17,0.03,0.47-0.08,0.66l-0.97-2.75c-0.24,0.08-0.44,0.18-0.62,0.29c-0.01-0.36-0.02-0.7-0.03-1.01l-1.31-27.62
		c-0.16-3.35-0.33-6.82-0.2-10.22c0.07-1.87,0.23-3.79,0.38-5.64c0.18-2.1,0.36-4.27,0.41-6.44c0.09-3.6-0.16-7.21-0.41-10.7
		l-1.5-21.37c0.6,1.79,2.11,3.31,4.11,4.09c1.45,0.56,2.94,0.7,4.23,0.7c0.41,0,0.81-0.01,1.17-0.03c1.21-0.06,2.63-0.21,3.97-0.82
		c0.34-0.15,0.65-0.33,0.94-0.53c1.86,0.81,3.8,1.44,5.76,1.91c-8.28,17.04-9.09,35.41-2.05,49.56c0.63,1.74,2.38,3.21,4.71,3.93
		c3.01,0.94,6.22,0.45,8.57-1.32c1.96-1.47,3.41-3.3,4.83-5.08c1.53-1.92,2.97-3.74,4.8-4.71c3.07-0.72,6.34-0.2,10.21,1.64
		C524.26,570.64,523.92,576.72,523.58,582.6z M511.64,560.54l-0.31,0.11c-2.5,1.25-4.25,3.46-5.95,5.6
		c-1.29,1.63-2.63,3.31-4.28,4.54c-1.59,1.19-3.78,1.51-5.88,0.85c-1.42-0.44-2.52-1.28-2.8-2.13l-0.08-0.2
		c-6.76-13.52-5.84-31.26,2.37-47.69c0.63,0.1,1.26,0.19,1.89,0.27c3.67,0.44,7.31,0.49,10.89,0.55c0.8,0.02,1.64,0.03,2.48,0.02
		l-0.88,0.05l0.29,5.4c0.06,1.05,0.52,1.97,1.35,2.65c1.4,1.16,3.67,1.55,6.34,1.55c1.68,0,3.52-0.16,5.39-0.38l0.07,1.17
		c0.6,9.65,1.2,19.52,1.45,29.41C519.45,560.2,515.4,559.6,511.64,560.54z M525.13,528.34l-2.86,0.17l0.01,0.24
		c-2.82,0.34-8.06,0.82-9.63-0.49c-0.21-0.18-0.26-0.33-0.27-0.51l-0.29-5.34c0.3-0.01,0.6-0.01,0.89-0.03
		c1.84-0.11,3.67-0.33,5.48-0.6c2.72-0.41,5.4-0.97,8.05-1.57c-0.01,0.47-0.05,0.87-0.08,1.34c-0.05,0.57-0.1,1.21-0.13,2.09
		c-0.02,0.51,0.02,0.92,0.04,1.23c0.01,0.11,0.02,0.21,0.02,0.29c-0.05,0.04-0.12,0.09-0.23,0.17l-0.56,0.37l-0.1,0.66
		c-0.04,0.25-0.07,0.49-0.1,0.71C525.31,527.55,525.22,528.21,525.13,528.34z M601.63,602.61c-9.49-0.47-19.84-8.4-23.08-17.69
		l-2.18,0.76l1.44-6.57c3.81-17.43,2.78-35.55,1.78-53.06c-0.27-4.71-0.54-9.57-0.72-14.31c-0.02-0.62,0-1.01,0.03-1.39
		c0.04-0.58,0.08-1.18-0.07-2.29l-2.97,0.39c0.11,0.81,0.08,1.18,0.05,1.7c-0.03,0.41-0.06,0.93-0.03,1.71
		c0.17,4.77,0.45,9.65,0.72,14.38c0.99,17.32,2.01,35.22-1.72,52.25l-1.7,7.76c-0.48,2.18-0.97,4.44-2.21,6.18
		c-1.94,2.72-5.54,3.94-8.47,4.7c-8.15,2.1-16.49,2.34-24.11,0.68c-1.58-0.34-3.22-0.79-4.5-1.71c-5.19-3.73-6.92-13.02-6.82-20.47
		c0.21-14.38-0.68-28.86-1.55-42.86l-0.08-1.38c2.43-0.51,2.69-2.36,2.9-3.88c0-0.02,0.01-0.04,0.01-0.07
		c1.03-0.9,1.06-1.8,0.98-2.78c-0.02-0.24-0.04-0.53-0.03-0.88c0.03-0.83,0.08-1.43,0.12-1.96c0.06-0.71,0.11-1.35,0.1-2.28
		l4.82-1.12l2.6-0.57c0.89-0.19,1.79-0.39,2.67-0.61c3.55-0.88,7.01-1.99,10.42-3.21c1.7-0.61,3.39-1.24,5.07-1.89
		c1.67-0.66,3.24-1.18,4.94-1.6c3.36-0.84,6.86-1.27,10.41-1.67c3.54-0.38,7.18-0.78,10.75-1.42c3.58-0.63,7.12-1.41,10.63-2.35
		c3.51-0.94,6.97-2.03,10.38-3.29c0.85-0.31,1.7-0.65,2.55-0.98c0.86-0.35,1.73-0.73,2.56-1.15c1.67-0.83,3.26-1.76,4.81-2.75
		c3.1-1.99,5.97-4.12,8.85-6.38c0.03-0.03,0.06-0.05,0.1-0.08l-0.31,0.6c7.76,4.01,10.45,11.94,8.47,24.95
		c-1.02,6.69-3.82,10.08-8.31,10.08c-0.1,0-0.2,0-0.3,0c-0.36-0.01-0.71-0.02-1.04-0.02c-2.2-0.02-2.76-0.13-3.13-1.11
		c-0.66-1.71-1.67-2.69-2.64-3.64c-0.56-0.55-1.09-1.07-1.58-1.75c-0.13-0.18-0.28-0.4-0.43-0.62c-1.2-1.76-3.02-4.43-5.47-3.69
		c-7.57,2.3-7.71,10.04-7.81,16.27c-0.03,1.61-0.05,3.13-0.2,4.45l-0.12,1.03c-0.72,6.36-1.46,12.93-1.08,19.53
		c0.06,0.96,0.08,1.95,0.12,2.94c0.11,3.75,0.23,7.62,1.65,11.16c1.85,4.62,4.35,4.67,5.67,4.29c3.63-1.06,6.23-7.88,6.16-12.09
		c2.75-0.21,10.58,0.5,11.84,0.93c0.04,0.02,0.08,0.03,0.12,0.05l0.01,1.16l1.72-0.79c0.14-0.02,0.28-0.05,0.42-0.11
		c0.15,0.17,0.28,0.35,0.39,0.55c0.27,0.5,0.5,0.93,0.67,1.32l-0.07,0l0.41,6.29c0.35,6.52,0.24,13.04-2.51,18.7
		C619.5,599.54,609.59,603,601.63,602.61z M607.64,562.1c0.57,3.03-1.93,9.32-3.93,9.9c-0.68,0.19-1.51-1.17-2.05-2.52
		c-1.22-3.04-1.33-6.65-1.44-10.13c-0.03-1.02-0.06-2.04-0.12-3.02c-0.37-6.34,0.36-12.79,1.06-19.02l0.12-1.03
		c0.16-1.46,0.19-3.05,0.22-4.73c0.12-6.9,0.59-11.9,5.61-13.44c0.56,0.11,1.75,1.84,2.19,2.5c0.17,0.25,0.33,0.49,0.48,0.69
		c0.64,0.89,1.32,1.56,1.92,2.14c0.84,0.82,1.51,1.47,1.93,2.57c1.15,2.99,3.79,3.01,5.91,3.03c0.32,0,0.64,0.01,0.98,0.02
		c2.46,0.09,4.6-0.58,6.37-1.91c-1.95,11.12-4.5,22.25-7.57,33.1c-4.11-0.49-9.76-0.83-11.06,0.21
		C607.75,560.86,607.52,561.48,607.64,562.1z M673.04,596.03c-0.78,0.73-1.72,0.97-2.98,0.74c-2.71-0.5-3.76-0.28-5.84,0.16
		l-0.93,0.19c-1.81,0.37-3.92-0.01-5.52-0.97c-1.22-3.26-1.24-6.27-1.26-9.73c0-0.74-0.01-1.49-0.03-2.26
		c-0.04-2.03-0.23-4.06-0.41-6.02c-0.23-2.45-0.46-4.98-0.4-7.47c0.01-0.4,0.08-1.1,0.16-1.92c0.51-5.26,0.76-10.11-1.75-11.67
		c-0.25-0.15-0.39-0.31-0.58-0.52c-0.4-0.44-1.11-1.23-2.54-0.99c-1.51-0.5-2.99-0.85-4.74,0.27c-0.89,0.08-1.72,0.46-2.45,1.12
		c-3.48,3.18-4.32,12.79-4.7,22.7c-0.04,0.99-0.07,1.79-0.11,2.29c-0.06,0.77-0.1,1.54-0.15,2.32c-0.3,4.85-0.58,9.44-2.89,13.26
		l-8.36,0.44c-0.91,0.05-1.85,0.1-2.58-0.17c-0.52-0.19-0.93-0.6-0.95-0.95l-0.47,0.01l-0.05-0.25c1.14-1.35,2.13-2.83,2.9-4.42
		c3.53-7.26,3.13-15.76,2.61-23.39c0.7-2.2-0.29-4.03-1.17-5.67c-0.58-1.08-1.51-1.97-2.62-2.5l-0.63-0.3l-0.64,0.29
		c-0.15,0.07-0.29,0.15-0.41,0.25c-0.24-0.07-0.67-0.15-1.21-0.24c3.16-11.21,5.76-22.7,7.73-34.19l0.87-5.08
		c0.56-1.46,0.99-3.11,1.27-4.96c0.63-4.11,1.06-8.97,0.26-13.63l1.62-0.03c-0.01-0.6-0.04-1.01-0.06-1.34
		c-0.05-0.68-0.05-0.74,0.34-1.87c0.6-1.73,1.49-3.37,2.61-4.82l0.07,0.12c6.16-3.69,17.52-4.4,23.37-1.47
		c3.85,1.93,6.46,5.89,7.74,11.76c1.32,6.03,1.79,12.34,2.25,18.44c0.13,1.68,0.25,3.36,0.4,5.04c0.23,2.65,0.45,5.3,0.67,7.95
		c0.94,11.32,1.92,23.03,3.27,34.52l0.1,0.84C676.45,585.28,675.85,593.38,673.04,596.03z"/>
	<path d="M655.55,508.45l0.01-1.05l-0.99-0.37c-0.3-0.11-0.69-0.32-1.11-0.55c-1.36-0.73-3.41-1.83-5.03-0.46l-0.47,0.4l-2.93,31.52
		l0.84,0.48c1.65,0.94,3.62,1.57,5.46,1.57c1.62,0,3.15-0.49,4.28-1.67l0.44-0.45l-0.1-3.57
		C655.72,525.99,655.46,516.58,655.55,508.45z M648.21,536.23l2.58-27.74c0.41,0.17,0.93,0.44,1.26,0.62
		c0.16,0.09,0.33,0.18,0.5,0.26l0.42,24.99l0.06,2.21C651.84,537.28,649.88,536.98,648.21,536.23z"/>
	<path d="M515.78,135.91l1.09,0.28c1.55,0.39,3.15,0.59,4.75,0.59c1.45,0,2.91-0.16,4.32-0.48l1.25-0.29l-0.09-1.28
		c-0.15-2.11-0.34-3.72-0.53-5.27c-0.19-1.59-0.37-3.09-0.52-5.13c-0.08-1.14-0.66-2.25-1.17-3.23c-0.3-0.58-0.58-1.12-0.71-1.54
		l-0.19-0.65l-0.61-0.29c-1.49-0.7-3.21-0.75-4.5-0.12c-0.98,0.48-1.64,1.32-1.87,2.37c-1.11,5.04-1.45,8.82-1.27,13.94
		L515.78,135.91z M519.94,121.49c0.03-0.13,0.08-0.23,0.26-0.32c0.3-0.15,0.81-0.19,1.36-0.05c0.19,0.46,0.43,0.91,0.66,1.35
		c0.38,0.72,0.8,1.54,0.84,2.06c0.15,2.12,0.34,3.73,0.53,5.29c0.15,1.22,0.29,2.39,0.41,3.79c-1.75,0.26-3.55,0.23-5.3-0.08
		C518.62,129.2,518.96,125.93,519.94,121.49z"/>
	<rect x="543.55" y="526.12" width="0.7" height="3"/>
	<path d="M547.52,558.35c-0.15,0.14-0.48,0.18-0.76,0.01l0.3-0.51l-0.58-0.05c0.03-0.33,0.26-0.58,0.45-0.62
		c0.12-0.02,0.29,0.02,0.44,0.14l0.91-1.55c-0.88-0.52-2.02-0.36-2.82,0.39c-0.8,0.76-1.02,1.88-0.55,2.79
		c0.39,0.77,1.19,1.22,2.08,1.22c0.17,0,0.34-0.02,0.51-0.05c1.08-0.21,1.87-1.04,1.96-2.07l-1.79-0.16
		C547.67,558.09,547.61,558.26,547.52,558.35z"/>
	<rect x="540.88" y="581.25" width="2.25" height="3"/>
	<rect x="567.88" y="558.75" width="2.25" height="3"/>
	<rect x="564.93" y="577.88" width="0.7" height="3"/>
	<path d="M564.74,538.13c-0.36,0.15-0.78,0.14-1.11-0.06l0.52-0.87l-0.54-0.86c0.33-0.21,0.75-0.23,1.12-0.08l0.45-0.75
		c-0.76-0.46-1.69-0.32-2.25,0.35c-0.62,0.75-0.61,2,0.03,2.73c0.34,0.39,0.8,0.59,1.28,0.59c0.33,0,0.67-0.1,0.97-0.29
		L564.74,538.13z"/>
	<rect x="536.24" y="540.19" transform="matrix(0.8944 -0.4472 0.4472 0.8944 -185.5046 297.5648)" width="2.52" height="3"/>
	<rect x="565.62" y="521.62" width="1.12" height="3"/>
	<path d="M677.8,509.89c-0.04,0.12-0.08,0.24-0.11,0.36h0.81v-0.76c-0.14,0.15-0.3,0.27-0.48,0.34
		C677.95,509.87,677.87,509.88,677.8,509.89z"/>
	<polygon points="678.21,507.62 678.5,507.71 678.5,507 677.5,507 677.5,507.37 678.32,507.54 	"/>
	<path d="M678.18,507.65l-0.27,0.22h0.21C678.14,507.8,678.15,507.73,678.18,507.65z"/>
	<path d="M677.5,509.94c-0.06,0-0.12,0.01-0.18,0.01c-0.03,0-0.06,0-0.09,0c-0.28,0-0.56-0.01-0.83-0.02
		c0.05,0.47,0.09,0.92,0.12,1.35l1-0.03c0-0.33,0.08-0.66,0.18-1h-0.19V509.94z"/>
	<path d="M676.8,507.14c-0.01,0.01-0.03,0.01-0.04,0.02c0.15,0.07,0.33,0.12,0.5,0.16c0.01-0.17,0-0.36,0.01-0.52l-0.19-0.02
		l-0.13,0.34C676.92,507.11,676.86,507.12,676.8,507.14z"/>
	<path d="M676.69,508.7c0,0.08,0,0.16-0.01,0.24c0.18,0,0.37,0.01,0.55,0.01c0.08,0,0.17,0,0.26-0.01v-0.73
		C677.26,508.41,676.98,508.57,676.69,508.7z"/>
	<path d="M677.5,509.94v0.31h0.19c0.03-0.12,0.07-0.24,0.11-0.36C677.69,509.92,677.6,509.93,677.5,509.94z"/>
	<path d="M677.5,508.21v0.73c0.05-0.01,0.11-0.01,0.14-0.03c0.12-0.05,0.23-0.2,0.31-0.41c0.05-0.14,0.09-0.29,0.12-0.45
		c0.01-0.06,0.03-0.12,0.05-0.18h-0.21L677.5,508.21C677.5,508.21,677.5,508.21,677.5,508.21z"/>
	<path d="M677.5,507.88v-0.5l-0.22-0.04c-0.01,0-0.01,0-0.02-0.01c-0.01,0.18-0.02,0.36-0.01,0.55H677.5z"/>
	<path d="M678.5,509.49c0.16-0.17,0.3-0.39,0.39-0.65c0.07-0.18,0.11-0.37,0.16-0.56c0.03-0.12,0.06-0.25,0.09-0.37l-0.64-0.2
		V509.49z"/>
	<path d="M676.28,506.7l0.8,0.09l0.23-0.6c-0.29-0.11-0.63-0.09-0.92,0.04s-0.53,0.38-0.64,0.67c-0.09,0.25-0.08,0.51,0.04,0.71
		c0.06,0.12,0.15,0.2,0.23,0.26l-0.35,0.1l0.02,0.4c0.01,0.33,0,0.67-0.04,1l-0.06,0.53l0.54,0.02c0.09,0,0.18,0,0.27,0.01
		c0-0.02,0-0.04,0-0.05C676.29,508.8,676.17,507.68,676.28,506.7z"/>
	<path d="M678.21,507.62l0.11-0.09l-0.82-0.16v0.5h0.41l0.27-0.22c-0.02,0.07-0.04,0.15-0.06,0.22h0.13c0,0.67-0.2,1.27-0.4,1.85
		c-0.02,0.06-0.04,0.11-0.06,0.17c0.08-0.02,0.15-0.03,0.23-0.06c0.18-0.07,0.34-0.19,0.48-0.34v-1.78L678.21,507.62z"/>
	<path d="M677.32,509.95c0.05,0,0.12-0.01,0.18-0.01v-1c-0.09,0.01-0.18,0.01-0.26,0.01c-0.19,0-0.37-0.01-0.55-0.01
		c0-0.08,0.01-0.16,0.01-0.24c0.29-0.12,0.56-0.29,0.81-0.48v-0.34h-0.25c0,0.04,0,0.08,0,0.12c0-0.04,0-0.08,0-0.12h0
		c-0.01-0.19,0.01-0.37,0.01-0.55c-0.18-0.04-0.35-0.1-0.5-0.16c0.01-0.01,0.03-0.02,0.04-0.02c0.05-0.03,0.11-0.03,0.15-0.02
		l0.13-0.34l-0.8-0.09c-0.11,0.98,0,2.1,0.11,3.18c0,0.02,0,0.04,0,0.05c0.28,0.01,0.56,0.02,0.83,0.02
		C677.26,509.95,677.29,509.95,677.32,509.95z"/>
	<path d="M677.25,507.99c0-0.04,0-0.08,0-0.12h0C677.25,507.92,677.25,507.96,677.25,507.99z"/>
	<path d="M677.95,508.5c-0.08,0.21-0.19,0.36-0.31,0.41c-0.04,0.02-0.09,0.02-0.14,0.03v1c0.1-0.01,0.19-0.02,0.3-0.05
		c0.02-0.06,0.04-0.11,0.06-0.17c0.19-0.58,0.4-1.18,0.4-1.85h-0.13c-0.02,0.06-0.03,0.12-0.05,0.18
		C678.04,508.21,678,508.36,677.95,508.5z"/>
	<polygon points="677.5,508.21 677.91,507.88 677.5,507.88 677.5,508.21 	"/>
</g>
</svg>
